<?xml version="1.0" encoding="UTF-8" standalone="no"?>
<svg
   xmlns:dc="http://purl.org/dc/elements/1.1/"
   xmlns:cc="http://creativecommons.org/ns#"
   xmlns:rdf="http://www.w3.org/1999/02/22-rdf-syntax-ns#"
   xmlns:svg="http://www.w3.org/2000/svg"
   xmlns="http://www.w3.org/2000/svg"
   id="svg8"
   version="1.1"
   viewBox="0 0 281.94001 53.339998"
   height="2.0999999in"
   width="11.1in">
  <defs
     id="defs2" />
  <metadata
     id="metadata5">
    <rdf:RDF>
      <cc:Work
         rdf:about="">
        <dc:format>image/svg+xml</dc:format>
        <dc:type
           rdf:resource="http://purl.org/dc/dcmitype/StillImage" />
        <dc:title></dc:title>
      </cc:Work>
    </rdf:RDF>
  </metadata>
  <g
     transform="translate(0,-243.65997)"
     id="layer1">
    <path
       id="brush"
       d="m 57.321721,298.28625 c -0.780912,-0.41277 -0.836986,-0.41566 -11.32683,-0.58455 -2.843965,-0.0458 -3.474356,-0.13148 -4.168682,-0.56666 -1.204349,-0.75482 -5.14341,-1.50608 -6.483439,-1.23652 -0.871081,0.17524 -1.401154,0.088 -2.857995,-0.4704 -1.48234,-0.56817 -1.788592,-0.81958 -1.788592,-1.4683 0,-0.995 -0.812182,-1.34721 -2.901752,-1.25837 -1.594053,0.0678 -1.677652,0.0346 -2.164329,-0.85823 -0.411731,-0.75536 -0.682396,-0.91516 -1.449961,-0.85609 -0.519015,0.04 -0.943696,-0.0351 -0.943696,-0.16684 0,-0.13172 0.296202,-0.17935 0.658216,-0.10585 0.445689,0.0905 0.658204,-0.0118 0.658204,-0.31686 0,-0.64919 -0.384391,-0.76324 -1.591515,-0.47223 -1.681072,0.40528 -2.365521,-0.1225 -1.090298,-0.84073 1.10948,-0.62487 0.521043,-1.1023 -0.702498,-0.56997 -0.638327,0.27773 -0.684362,0.23375 -0.439719,-0.42009 0.215101,-0.57488 0.110713,-0.7528 -0.490853,-0.83602 -0.965203,-0.13355 -2.706046,0.19713 -2.706046,0.51403 0,0.33434 -3.657425,0.3012 -4.300317,-0.039 -0.736108,-0.3895 -0.677435,-1.57883 0.07787,-1.57883 0.332434,0 0.850268,0.15672 1.150725,0.34826 0.797927,0.50871 1.673436,0.4256 1.834391,-0.17413 0.100375,-0.37405 0.482957,-0.54327 1.346971,-0.59588 1.406079,-0.0856 1.480936,-0.36037 0.54377,-1.99501 -0.359429,-0.62687 -0.653468,-1.88578 -0.653468,-2.79758 v -1.65782 l -1.483657,-0.28386 c -1.255298,-0.24018 -1.681211,-0.22388 -2.767217,0.10591 -0.82584,0.25078 -1.695639,0.33505 -2.439247,0.23631 -0.9524771,-0.12649 -1.1810141,-0.30641 -1.2997891,-1.02324 l -0.144146,-0.86976 -0.841153,0.87068 c -0.462593,0.47887 -0.983549,0.87068 -1.157579,0.87068 -0.174025,0 -0.213173,0.20896 -0.08696,0.46436 0.159605,0.32294 0.01361,0.46436 -0.479919,0.46436 -0.775639,0 -0.972269,-0.58316 -0.273639,-0.81162 0.272146,-0.089 0.32379,-0.90038 0.137549,-2.16138 -0.164027,-1.11039 -0.272145,-2.57493 -0.240328,-3.25454 l 0.05796,-1.23564 -1.501832,0.0685 c -0.825964,0.0376 -1.753116,-0.0663 -2.060375,-0.23112 -0.614197,-0.32942 -0.33332,-0.48377 2.268635,-1.24665 0.896841,-0.26295 1.447936,-0.63835 1.625088,-1.10699 0.161911,-0.42836 0.897188,-0.97429 1.857166,-1.37889 0.874015,-0.36839 1.9584421,-1.00472 2.4098921,-1.41409 l 0.820789,-0.74431 -1.917805,0.15365 c -1.0548111,0.0845 -2.4608411,0.20861 -3.1245421,0.27576 -1.321123,0.13369 -1.582248,-0.15737 -0.548508,-0.61133 0.863268,-0.37908 0.831674,-0.69432 -0.105969,-1.05709 -0.720036,-0.27858 -0.707273,-0.3576 0.220638,-1.36817 0.541617,-0.58989 1.293695,-1.13524 1.671283,-1.2119 0.981746,-0.19934 1.694854,0.24845 1.176398,0.73867 -0.487421,0.46085 0.249334,1.50074 1.0652971,1.5036 0.771333,0.003 1.896274,-0.67073 1.896274,-1.1352 0,-0.22403 -0.493666,-0.6527 -1.097029,-0.95262 -1.4459571,-0.71877 -1.3855781,-1.39211 0.196806,-2.19427 0.711617,-0.36072 1.353376,-0.87656 1.426129,-1.14629 0.104608,-0.38785 0.392603,-0.47579 1.376624,-0.42048 0.684414,0.0385 1.474803,-0.0312 1.756376,-0.15489 0.325595,-0.14296 1.309108,-0.14605 2.700733,-0.008 2.760325,0.27286 3.294141,0.16018 3.294141,-0.69533 0,-0.8392 1.008291,-1.41696 2.472857,-1.41696 0.923471,0 1.079079,-0.0994 0.99952,-0.6385 -0.196977,-1.33444 0.02239,-1.57242 1.969465,-2.13516 1.183674,-0.34214 1.844965,-0.67733 1.708274,-0.86583 -0.125681,-0.17325 0.07202,-0.30759 0.452495,-0.30759 0.371593,0 0.804383,0.21471 0.961832,0.47715 0.350297,0.58399 1.346397,0.45827 1.211811,-0.15297 -0.05336,-0.24215 0.01266,-0.30967 0.146262,-0.15005 0.283912,0.33877 1.925317,0.39597 1.925317,0.0671 0,-0.12272 0.423313,-0.4318 0.940674,-0.68685 0.700335,-0.34521 1.141471,-0.40685 1.726399,-0.24122 1.218267,0.34499 1.37395,0.27554 1.062797,-0.47406 -0.226035,-0.54451 -0.137872,-0.69654 0.403919,-0.69654 0.381197,0 0.693096,-0.15672 0.693096,-0.34827 0,-0.23334 -0.441039,-0.34827 -1.336386,-0.34827 -0.809557,0 -1.734384,-0.21061 -2.346091,-0.53429 -0.5554,-0.29385 -1.237523,-0.4941 -1.5159,-0.44501 -0.27839,0.0491 -0.506129,-0.0523 -0.506129,-0.22523 0,-0.31111 4.111723,-0.90748 6.6967,-0.97129 0.666326,-0.0165 1.134718,-0.13585 1.040806,-0.26534 -0.105968,-0.14609 1.432497,-0.26346 4.054108,-0.30929 2.658613,-0.0465 4.468911,-0.18606 4.883106,-0.3765 0.593312,-0.2728 4.630652,-0.60215 7.459739,-0.60855 0.603361,-0.001 1.704818,-0.10394 2.447717,-0.22795 0.983241,-0.16414 1.759181,-0.13711 2.852261,0.0993 2.13528,0.4619 16.66694,0.73998 19.93123,0.38142 1.89338,-0.20798 2.60262,-0.20611 3.09049,0.008 0.44294,0.1945 4.16095,0.30936 12.37452,0.38229 13.967319,0.124 19.483979,0.20346 20.078739,0.28922 0.60617,0.0874 4.10917,0.22684 5.7045,0.22706 9.51125,0.001 14.70008,0.17995 14.70008,0.50617 0,0.11681 -0.53314,0.21238 -1.18478,0.21238 -1.70262,0 -0.73834,0.3298 1.99026,0.68071 1.79498,0.23085 2.46058,0.23736 2.85225,0.0279 0.3894,-0.20819 0.32603,-0.32838 -0.26618,-0.50518 -1.0786,-0.32198 -0.51722,-0.69593 0.68295,-0.45494 0.53449,0.10731 1.98869,0.14328 3.23163,0.0799 2.06103,-0.10508 2.32502,-0.0625 3.00118,0.48349 0.9146,0.73857 2.23716,0.98531 3.1449,0.58672 0.56944,-0.25007 0.77706,-0.23377 1.23406,0.0969 0.30216,0.21866 1.06407,0.39755 1.69307,0.39755 0.71251,0 1.69851,0.29354 2.6151,0.77851 1.30615,0.69112 1.82969,0.7972 4.66395,0.94497 2.77648,0.14476 3.09036,0.20606 2.40771,0.47017 -0.71338,0.27601 -0.64715,0.31803 0.726,0.46059 4.08426,0.42401 5.95547,0.70565 6.53851,0.98413 1.28006,0.61137 -0.24652,0.83797 -6.86927,1.01963 -3.57257,0.098 -6.54494,0.1871 -6.60526,0.19799 -0.0603,0.0109 -0.10962,0.22878 -0.10962,0.48418 0,0.35887 0.29255,0.46436 1.28774,0.46436 0.70827,0 2.73228,0.16426 4.49776,0.36501 1.76555,0.20076 3.78005,0.40656 4.47665,0.45735 1.30243,0.0949 2.15774,0.33855 1.18864,0.33855 -0.79157,0 0.52242,0.64886 1.79013,0.884 0.56118,0.1041 1.85956,0.1747 2.8853,0.15689 1.0257,-0.0178 1.86493,0.0425 1.86493,0.13407 0,0.21652 2.01246,0.39877 6.36273,0.57618 1.93074,0.0787 3.57628,0.23937 3.65671,0.35692 0.0805,0.11756 0.33892,0.21375 0.57445,0.21375 0.23546,0 0.28377,-0.1306 0.10735,-0.29023 -0.17634,-0.15962 0.0745,-0.10738 0.55715,0.11609 0.53109,0.2458 1.59082,0.40632 2.68241,0.40632 0.99248,0 1.93405,0.11093 2.09241,0.2465 0.4633,0.39665 2.49606,0.71937 3.60428,0.57221 0.56228,-0.0747 0.9039,-0.2372 0.75913,-0.36115 -0.15421,-0.13197 0.42947,-0.21579 1.4082,-0.20223 1.43068,0.0198 1.51344,0.0469 0.57439,0.18851 l -1.09702,0.16536 1.26183,0.17151 c 1.94528,0.26439 18.68458,0.39071 17.45668,0.13172 -0.56528,-0.11923 -1.2024,-0.1597 -1.4157,-0.09 -0.21335,0.0698 -0.92325,-0.0216 -1.57757,-0.20296 -1.17884,-0.32682 -1.17174,-0.32941 0.78053,-0.28455 1.08354,0.0249 2.19297,0.11814 2.46535,0.20721 0.27236,0.0891 0.60984,0.0638 0.74997,-0.0562 0.28451,-0.24359 3.3708,-0.10337 3.739,0.16988 0.2495,0.18516 1.42735,0.22844 11.20575,0.41175 3.37884,0.0633 6.20914,0.21473 6.28958,0.33641 0.0805,0.12168 0.33893,0.22124 0.57444,0.22124 0.23546,0 0.30607,-0.10448 0.15686,-0.23218 -0.14912,-0.1277 0.0365,-0.23219 0.41293,-0.23219 0.37624,0 0.6841,0.0799 0.6841,0.17752 0,0.0976 1.23416,0.20521 2.74255,0.23907 3.77034,0.0846 7.0574,0.27878 7.3366,0.43334 0.20528,0.11363 -9.17261,-0.0307 -10.29857,-0.15856 -0.24134,-0.0274 -1.03119,-0.0301 -1.75522,-0.006 -1.1471,0.0382 -1.20353,0.0695 -0.43881,0.24336 0.48269,0.10974 1.71684,0.20688 2.74255,0.21586 1.02571,0.009 1.86494,0.1134 1.86494,0.23205 0,0.11866 -0.90965,0.16281 -2.02156,0.0981 -1.27509,-0.0742 -1.92241,-0.0328 -1.75311,0.11216 0.1478,0.12659 -0.0773,0.19477 -0.5016,0.15183 -0.42354,-0.0428 -0.77003,-0.0921 -0.77003,-0.10941 0,-0.0173 -0.76274,-0.0621 -1.69495,-0.0997 -1.25196,-0.0503 -1.50067,-0.0107 -0.95154,0.15192 0.40886,0.12107 1.12224,0.16771 1.58524,0.10365 0.46302,-0.064 0.84183,-0.0218 0.84183,0.094 0,0.11575 -0.22505,0.21045 -0.50013,0.21045 -0.27504,0 -0.78486,0.18284 -1.13283,0.40632 -0.48774,0.31323 -0.58547,0.32434 -0.42643,0.0485 0.1478,-0.25626 -0.12247,-0.36423 -0.95147,-0.38041 -0.6368,-0.0124 -0.81224,0.0257 -0.38987,0.0846 0.88581,0.12367 1.02856,0.67535 0.21938,0.84811 -0.30193,0.0644 -0.15403,0.13269 0.32911,0.15176 l 0.87761,0.0346 -0.87761,0.19954 -0.87761,0.19955 0.87761,0.0415 c 0.4827,0.0228 1.81557,0.0405 2.96195,0.0394 1.14641,-10e-4 2.08434,0.092 2.08434,0.20705 0,0.11504 -0.22165,0.20916 -0.49252,0.20916 -0.35886,0 -0.36169,0.0834 -0.009,0.30724 0.38575,0.24592 0.22135,0.287 -0.82386,0.20583 -0.80758,-0.0627 -1.3058,10e-4 -1.3058,0.16764 0,0.18255 -0.50171,0.21926 -1.56035,0.11417 -1.27033,-0.1261 -1.75976,-0.0558 -2.63286,0.37823 -0.58989,0.29321 -1.07248,0.41164 -1.07248,0.26318 0,-0.14844 -0.34558,-0.25459 -0.76792,-0.23586 -1.94252,0.0861 -2.71316,-0.0421 -2.44834,-0.40726 0.19868,-0.27393 0.35179,-0.29491 0.60017,-0.0823 0.34678,0.2969 1.73846,0.14391 1.73846,-0.1911 0,-0.10522 -0.83923,-0.31497 -1.86494,-0.46611 -2.35267,-0.34665 -2.89904,-0.54175 -3.10434,-1.10859 -0.45614,-1.25919 -1.24245,-1.42941 -2.97758,-0.64458 -0.52367,0.23685 -1.00241,0.26006 -1.84942,0.0897 -0.70111,-0.14105 -1.24059,-0.14623 -1.39574,-0.0134 -0.31006,0.26547 1.7292,0.5623 2.62019,0.38139 0.35488,-0.0721 0.78074,-0.0149 0.94645,0.12692 0.16575,0.14186 0.12039,0.1988 -0.10054,0.12654 -0.221,-0.0723 -0.7829,0.0161 -1.24873,0.19631 -0.80363,0.31094 -0.78446,0.32768 0.37593,0.32768 0.67257,0 1.78629,0.21229 2.47497,0.47176 0.87582,0.32997 1.62153,0.42899 2.48118,0.32949 0.94305,-0.10916 1.07587,-0.0847 0.57086,0.10514 -0.36201,0.13607 -1.05315,0.25635 -1.53582,0.26728 l -0.87763,0.0199 0.87763,0.19954 c 0.67089,0.15254 0.41615,0.20339 -1.08136,0.21586 -1.86577,0.0155 -1.92241,0.0357 -1.19083,0.42264 0.67311,0.35608 0.82266,0.36326 1.20935,0.0581 0.36653,-0.28931 0.41953,-0.27412 0.3132,0.0897 -0.0769,0.26354 0.1614,0.46216 0.59867,0.49867 0.39971,0.0334 1.08426,0.16653 1.52122,0.29593 0.57696,0.17085 -0.34809,0.22903 -3.37819,0.21247 -2.29507,-0.0125 -4.44172,0.0652 -4.77038,0.17262 -0.40275,0.13171 -0.4955,0.10802 -0.28453,-0.0726 0.17217,-0.14743 0.10395,-0.26806 -0.15158,-0.26806 -0.25557,0 -0.46471,0.21513 -0.46471,0.47807 0,0.26294 0.17897,0.41951 0.39787,0.34795 0.21884,-0.0716 0.29458,0.079 0.1682,0.33457 -0.25977,0.52559 0.28483,0.60709 1.16573,0.17446 0.47277,-0.23219 0.52903,-0.23219 0.28129,0 -0.17029,0.15962 -0.10055,0.29022 0.15497,0.29022 0.25556,0 0.4647,-0.1604 0.4647,-0.35644 0,-0.29907 0.15894,-0.31069 0.98732,-0.0722 0.80608,0.23206 3.03269,0.37468 7.13063,0.45674 0.24135,0.005 1.67297,-0.0507 3.18138,-0.12329 1.86172,-0.0897 2.74254,-0.0496 2.74254,0.12473 0,0.14251 -0.39063,0.20277 -0.87763,0.13539 -0.48267,-0.0668 -0.87757,-0.0529 -0.87752,0.031 4e-5,0.0838 -2.56699,0.13333 -5.70452,0.11003 -3.13752,-0.0233 -5.70459,0.0407 -5.70459,0.14221 0,0.10151 -0.54302,0.14228 -1.20671,0.0906 -5.68679,-0.44289 -8.41559,-0.40942 -9.18544,0.11265 -0.54168,0.36733 -0.56243,0.36648 -0.31279,-0.0128 0.23213,-0.35263 -0.0308,-0.40632 -1.98899,-0.40632 -2.07653,0 -2.22104,0.035 -1.81268,0.43874 0.3486,0.34464 0.28134,0.46102 -0.31365,0.54267 -1.1553,0.15852 -1.85445,-0.0437 -1.85445,-0.53639 0,-0.37661 -0.32042,-0.44447 -2.08434,-0.44146 -1.14638,0.002 -1.88686,0.0803 -1.64553,0.17414 0.49507,0.19245 0.71066,0.96897 0.28036,1.00983 -1.29734,0.12315 -4.31897,0.0499 -4.14336,-0.10049 0.12209,-0.10448 0.48808,-0.13592 0.81338,-0.0699 0.38058,0.0773 0.50449,1.2e-4 0.34748,-0.21635 -0.13418,-0.18505 -0.009,-0.33645 0.27829,-0.33645 0.2873,0 0.45159,-0.11232 0.3651,-0.2496 -0.20927,-0.33223 -1.01292,-0.28771 -1.01292,0.0561 0,0.42785 -1.068,0.50362 -1.36315,0.0967 -0.14666,-0.20217 -0.47579,-0.36757 -0.73158,-0.36757 -0.25574,0 -0.33502,0.0687 -0.17614,0.15277 0.15876,0.084 0.0434,0.31305 -0.25601,0.50893 -0.45209,0.29563 -0.43284,0.32128 0.11359,0.15093 0.56637,-0.17659 0.57474,-0.15077 0.0599,0.18506 -0.32903,0.21465 -0.82269,0.32386 -1.09703,0.24268 -0.35147,-0.104 -0.36329,-0.0693 -0.0399,0.11766 0.49082,0.28371 2.48602,0.5059 5.10221,0.5682 0.88648,0.0211 1.57761,0.13099 1.53583,0.24418 -0.0417,0.11319 0.28987,0.23813 0.73702,0.27765 0.68169,0.0602 0.78013,-0.0467 0.60946,-0.6619 -0.19905,-0.71761 -0.18922,-0.72233 0.44727,-0.21514 0.39581,0.31542 1.1026,0.52 1.80399,0.52216 0.90572,0.003 1.01193,0.0519 0.49498,0.22863 -0.36201,0.12378 -0.49126,0.22667 -0.28716,0.22862 0.20409,0.002 0.89522,-0.1884 1.53584,-0.42302 1.45105,-0.53143 2.84313,-0.81202 2.47807,-0.49949 -0.14742,0.12624 -0.009,0.23752 0.30634,0.24729 0.97538,0.0301 2.18067,0.1743 2.39181,0.28601 0.11056,0.0586 0.86234,0.0275 1.67047,-0.0689 0.8081,-0.0964 1.71967,-0.0935 2.02574,0.007 0.30602,0.10008 1.03976,0.0847 1.63047,-0.0341 0.8226,-0.16548 1.02261,-0.14517 0.85442,0.0868 -0.12114,0.16695 0.10244,0.31891 0.4984,0.33865 0.39493,0.0197 1.70539,0.0859 2.91211,0.14707 1.20673,0.0612 2.83578,0.11972 3.62017,0.13004 0.98331,0.013 1.42613,0.13105 1.42613,0.38038 0,0.29926 -0.58639,0.35557 -3.40078,0.32662 -1.87042,-0.0192 -3.69876,-0.0168 -4.06296,0.005 -0.36422,0.0222 -0.85787,0.0195 -1.09703,-0.006 -0.23916,-0.0253 -1.5819,-0.0338 -2.98386,-0.0186 -1.68523,0.0182 -2.45087,0.11155 -2.25938,0.27551 0.15932,0.1364 0.55589,0.19396 0.88119,0.12791 0.36258,-0.0736 0.50496,-6.6e-4 0.36793,0.18817 -0.17539,0.24176 0.70153,0.31654 4.06393,0.34661 2.35816,0.0211 4.37765,0.086 4.48776,0.14428 0.11,0.0582 -0.72133,0.10593 -1.84757,0.10593 -3.43162,0 -2.28212,0.3895 1.56079,0.52887 1.98474,0.072 3.67963,0.24363 3.76642,0.38145 0.0867,0.13782 0.35053,0.25058 0.58604,0.25058 0.23546,0 0.32547,-0.0879 0.20005,-0.19527 -0.1255,-0.1074 0.55399,-0.18809 1.50989,-0.17932 0.95595,0.009 1.73802,0.10796 1.73802,0.22043 0,0.11248 -0.48838,0.13964 -1.08533,0.0604 -0.77665,-0.10314 -1.02431,-0.06 -0.8709,0.15152 0.14723,0.20296 -0.26203,0.29993 -1.30514,0.30929 -0.83573,0.008 -1.41952,-0.072 -1.29722,-0.17669 0.43648,-0.37367 -0.44863,-0.18162 -1.44459,0.31345 -1.335,0.66358 -5.17053,0.83986 -11.27089,0.51801 -1.80534,-0.0953 -2.48559,-0.0601 -2.27784,0.11775 0.16291,0.13944 0.72882,0.26089 1.25757,0.26986 0.92378,0.0157 0.92707,0.0238 0.0839,0.20558 -0.80622,0.17386 -0.77901,0.20298 0.33481,0.35788 0.76002,0.1057 1.45588,0.0617 1.86494,-0.11791 0.53188,-0.23357 0.6525,-0.2169 0.6525,0.0902 0,0.2496 0.37988,0.3767 1.12585,0.3767 0.61924,0 1.53167,0.11491 2.02761,0.25535 0.67242,0.19041 0.82236,0.18742 0.58972,-0.0118 -0.22104,-0.18923 0.2753,-0.25104 1.70227,-0.21195 1.9801,0.0542 2.58466,0.26727 1.42597,0.50252 -0.32356,0.0657 -0.86136,0.0301 -1.19512,-0.079 -0.3689,-0.12064 -0.72856,-0.0942 -0.91725,0.0673 -0.18653,0.15972 -1.36535,0.25004 -2.95441,0.22638 -1.87688,-0.028 -2.8405,0.0646 -3.32134,0.31902 -0.37255,0.19712 -0.67734,0.25345 -0.67734,0.12517 0,-0.24147 -3.1502,-0.17734 -3.93765,0.0802 -0.24792,0.0811 -0.33525,-6.6e-4 -0.19982,-0.18768 0.19816,-0.27322 -0.0928,-0.29759 -1.6506,-0.13826 -1.04011,0.10638 -2.76979,0.19798 -3.84378,0.20354 -2.24006,0.0116 -1.96954,0.41733 0.45312,0.6795 1.97618,0.21385 2.19824,0.71727 0.32942,0.74684 -1.49068,0.0236 -4.01545,0.36355 -3.21793,0.43331 0.24137,0.0211 1.62361,0.0842 3.07168,0.14032 1.44805,0.0561 3.32398,0.16549 4.16868,0.24315 1.52204,0.13992 1.52599,0.14335 0.43879,0.38222 -0.60336,0.13258 -1.39321,0.25139 -1.75522,0.26404 -0.78142,0.0273 -1.14608,1.01862 -0.50037,1.36029 0.30953,0.16377 0.89376,0.142 1.85751,-0.0692 1.32545,-0.29051 1.45965,-0.27249 2.34464,0.31476 l 0.93866,0.62288 36.84344,0.0324 c 22.60131,0.0199 35.31679,0.1062 32.89413,0.22334 -7.5177,0.36351 -29.44368,1.11807 -39.71216,1.36665 -5.67159,0.1373 -11.5955,0.31955 -13.16424,0.40501 l -2.85226,0.15537 3.29106,0.19582 c 1.8101,0.10771 3.83409,0.19545 4.49779,0.19498 0.79034,-4.7e-4 1.20672,0.1215 1.20672,0.35372 0,0.24891 -0.26154,0.31065 -0.87762,0.20719 -0.62973,-0.10576 -0.87761,-0.0417 -0.87761,0.22671 0,0.22749 -0.30093,0.34736 -0.76792,0.30587 -1.20126,-0.10672 -0.94545,0.7959 0.32911,1.16125 0.94932,0.27212 0.18332,0.29858 -5.68889,0.19657 -4.08139,-0.0709 -7.59186,-0.0195 -8.80821,0.12911 -1.68592,0.20591 -2.29126,0.17946 -3.63942,-0.15904 -1.33842,-0.33605 -1.8336,-0.35859 -2.87301,-0.13079 -1.01824,0.22317 -1.56612,0.20667 -2.89525,-0.0872 -2.16846,-0.47939 -2.57884,-0.29053 -1.4099,0.64884 0.90407,0.7265 1.01926,0.752 1.95072,0.43173 0.76915,-0.26446 1.25846,-0.28453 2.19405,-0.09 0.66229,0.13772 1.69779,0.25072 2.30115,0.2511 4.00724,0.003 10.48248,0.45476 11.48428,0.80207 0.67295,0.23331 1.81876,0.37003 2.83132,0.33784 3.2989,-0.10488 7.18589,0.0419 7.18589,0.27125 0,0.12769 -0.28928,0.23218 -0.64277,0.23218 -0.35355,0 -0.83696,0.19197 -1.0743,0.42662 -0.3926,0.38814 -0.98749,0.42054 -6.59757,0.35933 -6.28558,-0.0686 -6.41332,-0.0518 -6.18509,0.81291 0.0603,0.22846 -0.21111,0.28048 -0.93532,0.17926 -0.56116,-0.0784 -2.36711,-0.077 -4.01324,0.003 -2.87623,0.14014 -2.98286,0.16727 -2.73248,0.69513 0.42947,0.90536 -1.23001,1.07751 -8.69385,0.90184 -5.66234,-0.13326 -6.62411,-0.10398 -7.30588,0.22249 -0.51613,0.24715 -1.81514,0.4039 -3.79126,0.4575 -1.65336,0.0448 -3.3317,0.14977 -3.72961,0.23317 -0.39797,0.0834 -0.85395,0.04 -1.01327,-0.0964 -0.44411,-0.38023 -1.86546,-0.29454 -2.17417,0.13108 -0.23681,0.32659 -0.88489,0.36356 -4.67866,0.2669 -3.90034,-0.0994 -4.52854,-0.0602 -5.49571,0.3423 -1.11212,0.46287 -1.19558,0.46259 -5.3684,-0.0176 -1.04575,-0.12035 -2.52674,-0.13654 -3.29104,-0.036 -4.64761,0.61141 -5.64059,0.68368 -6.40798,0.46638 -1.21111,-0.34297 -6.17118,-0.48467 -7.9913,-0.2283 -1.05086,0.14801 -2.69373,0.14339 -4.78368,-0.0134 -2.66616,-0.20008 -3.30169,-0.1821 -3.9132,0.11071 -0.62447,0.29903 -1.28488,0.31169 -4.56655,0.0875 -2.83567,-0.19368 -4.26453,-0.19419 -5.47716,-0.002 -1.11063,0.17606 -2.768,0.19534 -5.13041,0.0597 -3.62921,-0.20842 -23.37436,-0.14255 -23.79377,0.0794 -0.1316,0.0696 -0.48217,0.0199 -0.77907,-0.11043 -0.37061,-0.16275 -0.90697,-0.1485 -1.71157,0.0455 -0.96779,0.23332 -1.57255,0.21044 -3.473289,-0.13142 -2.1123,-0.3799 -2.43526,-0.38435 -3.92883,-0.0542 -2.7569,0.6095 -8.94831,0.94421 -24.42894,1.32064 -7.29378,0.17737 -10.12226,0.32835 -10.845057,0.57895 -1.207085,0.41847 -1.1026,0.42194 -2.028136,-0.0673 z m -1.613456,-2.14768 c 0,-0.1288 -1.025854,-0.21995 -2.303752,-0.20471 -1.96919,0.0235 -2.112546,0.0532 -0.98732,0.20471 1.949935,0.26254 3.291072,0.26254 3.291072,0 z M 208.95933,274.84238 c -0.3032,-0.0573 -0.43964,-0.1997 -0.3032,-0.31649 0.13645,-0.11679 -0.0716,-0.21235 -0.46198,-0.21235 -0.3905,0 -0.58796,0.10448 -0.43881,0.23219 0.14912,0.1277 0.0132,0.24259 -0.30322,0.25532 -0.3159,0.0127 -0.0807,0.10019 0.52263,0.19436 1.1151,0.17403 1.99336,0.0375 0.98458,-0.15303 z m -15.90407,-4.7081 c 0,-0.1277 -0.30786,-0.23218 -0.6841,-0.23218 -0.37628,0 -0.56207,0.10448 -0.41291,0.23218 0.14911,0.1277 0.457,0.23218 0.6841,0.23218 0.22711,0 0.41291,-0.10448 0.41291,-0.23218 z m 13.25202,-0.74298 c -0.28159,-0.14898 -0.65761,-0.1938 -0.83568,-0.0996 -0.17803,0.0942 -0.0391,0.26441 0.3091,0.37822 0.81951,0.26799 1.18957,0.0722 0.52658,-0.27862 z m -11.27737,0.0464 c 0.14912,-0.1277 0.062,-0.23218 -0.19353,-0.23218 -0.25556,0 -0.4647,0.10448 -0.4647,0.23218 0,0.1277 0.0871,0.23218 0.19351,0.23218 0.10641,0 0.31557,-0.10448 0.46472,-0.23218 z m 15.33546,-0.71609 c -0.11604,-0.0993 -0.0308,-0.23941 0.18907,-0.31135 0.21999,-0.0719 0.50472,0.0136 0.63269,0.19007 0.16821,0.23192 1.03511,0.31392 3.12752,0.29581 2.11847,-0.0184 2.83848,-0.10274 2.68471,-0.31476 -0.11548,-0.15934 -0.0209,-0.35147 0.20954,-0.42694 0.49382,-0.1615 0.57027,-0.81895 0.0905,-0.77887 -0.18106,0.0151 -0.62531,0.008 -0.98732,-0.0163 -0.47281,-0.0315 -0.411,-0.10185 0.21942,-0.24983 0.67066,-0.15743 0.48983,-0.19023 -0.76679,-0.13906 -1.79008,0.0729 -2.82387,0.3777 -1.28102,0.3777 0.52293,0 0.95077,0.0811 0.95077,0.18028 0,0.0991 -0.7806,0.14088 -1.7347,0.0927 -0.98617,-0.0498 -2.59985,0.0873 -3.73966,0.31761 -1.10272,0.22283 -2.13221,0.33782 -2.28774,0.25553 -0.15554,-0.0823 0.0348,-0.14961 0.42273,-0.14961 0.38799,0 0.80122,-0.082 0.91824,-0.18219 0.11699,-0.10019 -0.41431,-0.17562 -1.18083,-0.1676 -0.76647,0.008 -1.72719,-0.067 -2.1349,-0.16671 -0.41735,-0.10207 -0.86203,-0.0779 -1.01763,0.0553 -0.15195,0.13012 -0.46018,0.17648 -0.68484,0.10301 -0.22468,-0.0735 -0.40849,-0.023 -0.40849,0.1123 0,0.13524 0.23036,0.24589 0.51197,0.24589 0.28152,0 0.36411,0.0782 0.18351,0.17377 -0.18068,0.0956 -0.60845,-0.0289 -0.95076,-0.27655 -0.34227,-0.24769 -0.62232,-0.38071 -0.62232,-0.29561 0,0.0851 -0.49367,0.0554 -1.09703,-0.066 -0.60337,-0.12137 -1.09702,-0.13327 -1.09702,-0.0264 0,0.10683 -0.49365,0.1443 -1.09701,0.0833 -0.60336,-0.061 -1.09702,-0.0147 -1.09702,0.10296 0,0.11766 -0.88859,0.19805 -1.97465,0.17865 -1.08604,-0.0194 -1.97462,0.0331 -1.97462,0.11667 0,0.0836 -0.5924,0.13025 -1.31642,0.10373 -0.72405,-0.0265 -1.31643,0.0426 -1.31643,0.15355 0,0.11097 -0.34557,0.14491 -0.76792,0.0754 -0.67396,-0.11088 -0.66908,-0.0929 0.0395,0.14665 0.44415,0.15014 1.3908,0.22769 2.10368,0.17233 0.71285,-0.0554 1.39752,-0.0138 1.52148,0.0923 0.12398,0.10612 3.7613,0.17716 8.08296,0.15788 4.32168,-0.0193 7.76267,-0.11631 7.64671,-0.21562 z m -4.75445,-0.25512 c 0.12682,-0.10849 0.41424,-0.13715 0.6389,-0.0637 0.57415,0.18775 0.50951,0.26097 -0.23041,0.26097 -0.35139,0 -0.53521,-0.0888 -0.40849,-0.19728 z m 10.38043,-1.96726 c -0.29709,-0.0636 -0.88947,-0.0675 -1.31645,-0.009 -0.42691,0.0588 -0.18389,0.11091 0.54017,0.11564 0.72406,0.005 1.07337,-0.0434 0.77628,-0.10704 z m 6.27601,-0.21256 c -0.37927,-0.20067 -0.68957,-0.4732 -0.68957,-0.60562 0,-0.14324 -0.46135,-0.1795 -1.139,-0.0895 -0.68095,0.0904 -1.43092,0.0305 -1.86494,-0.14896 -0.64878,-0.26832 -0.6619,-0.25705 -0.12379,0.10609 0.33127,0.22347 0.92365,0.41002 1.31644,0.41455 0.49142,0.006 0.37201,0.11172 -0.38283,0.34004 -1.05528,0.31919 -1.00817,0.33213 1.23807,0.34004 2.12281,0.008 2.2724,-0.0249 1.64552,-0.35663 z m 9.84184,-0.79605 c 0,-0.1277 -0.30787,-0.23218 -0.6841,-0.23218 -0.37629,0 -0.56207,0.10448 -0.41291,0.23218 0.14912,0.1277 0.457,0.23219 0.6841,0.23219 0.22711,0 0.41291,-0.10449 0.41291,-0.23219 z m -9.21499,-0.46436 c 0,-0.1277 -0.2845,-0.23218 -0.63232,-0.23218 -0.34774,0 -0.75434,0.10448 -0.9035,0.23218 -0.14911,0.12771 0.13533,0.23219 0.63232,0.23219 0.49692,0 0.9035,-0.10448 0.9035,-0.23219 z m -10.21457,-0.80443 c 0.18786,-0.10905 -0.006,-0.13267 -0.42652,-0.0525 -0.42235,0.0802 -0.76777,0.0707 -0.76766,-0.0211 1.9e-4,-0.0918 -1.0365,-0.12098 -2.30374,-0.0649 -2.17152,0.0961 -2.21571,0.1102 -0.76817,0.24592 2.00109,0.18762 3.83769,0.14135 4.26609,-0.10747 z m -3.90042,-0.36003 c 1.12627,-0.002 2.32141,-0.0952 2.65584,-0.20731 0.3826,-0.1282 -1.26259,-0.26559 -4.43715,-0.37054 -4.92155,-0.16272 -7.16574,-0.0475 -6.70805,0.34429 0.12455,0.1066 -0.16896,0.13913 -0.65186,0.0723 -0.48303,-0.0668 -0.87822,-0.009 -0.87822,0.1287 0,0.28588 7.59058,0.48983 7.82539,0.21025 0.0805,-0.0958 1.06779,-0.17573 2.19405,-0.17769 z m -11.24047,-0.051 c -0.74063,-0.18879 -1.13516,-0.18469 -1.5139,0.0157 -0.39048,0.2066 -0.15233,0.26731 1.00163,0.25533 1.42172,-0.0148 1.45289,-0.0313 0.51227,-0.27104 z m 31.16969,-0.56356 c -0.30168,-0.0644 -0.79534,-0.0644 -1.09703,0 -0.30167,0.0644 -0.0548,0.11711 0.54852,0.11711 0.60336,0 0.85018,-0.0527 0.54851,-0.11711 z m 3.18136,-0.54277 c 0.57866,-0.13158 0.65343,-0.20389 0.2194,-0.21231 -0.36202,-0.007 -0.9544,0.0885 -1.31643,0.21231 -0.80214,0.27427 -0.10944,0.27427 1.09703,0 z m -4.36225,-0.35436 c -1.04782,-0.42093 -1.56166,-0.4356 -1.56166,-0.0446 0,0.1637 0.54302,0.31769 1.20671,0.34219 1.15196,0.0425 1.16808,0.029 0.35495,-0.29763 z m -7.8238,-2.10774 c -0.14591,-0.0771 -0.52431,-0.0854 -0.84108,-0.0183 -0.35004,0.0741 -0.24609,0.12913 0.26514,0.14027 0.46254,0.0101 0.72173,-0.0448 0.57594,-0.12194 z m -69.65171,-7.1734 c 0,-0.19155 -0.17634,-0.34827 -0.39185,-0.34827 -0.21555,0 -0.50552,0.15672 -0.64443,0.34827 -0.15384,0.21215 0,0.34827 0.39184,0.34827 0.35444,0 0.64444,-0.15672 0.64444,-0.34827 z m -3.94928,-3.59881 c 0,-0.1277 -0.19746,-0.23218 -0.43881,-0.23218 -0.24132,0 -0.43879,0.10448 -0.43879,0.23218 0,0.1277 0.19747,0.23218 0.43879,0.23218 0.24135,0 0.43881,-0.10448 0.43881,-0.23218 z m 91.49153,41.79261 c -0.14911,-0.1277 0.0482,-0.23219 0.43883,-0.23219 0.39048,0 0.58794,0.10449 0.4388,0.23219 -0.14911,0.1277 -0.3466,0.23218 -0.4388,0.23218 -0.0922,0 -0.28967,-0.10448 -0.43883,-0.23218 z m -23.99731,-9.44586 c 0.31677,-0.0671 0.69525,-0.0588 0.84106,0.0183 0.1459,0.0772 -0.1134,0.13203 -0.57594,0.12195 -0.51121,-0.0111 -0.61518,-0.0662 -0.26512,-0.14028 z m 15.73312,-5.56853 c -0.40906,-0.21642 -0.36513,-0.54175 0.0731,-0.54175 0.20115,0 0.3657,0.15672 0.3657,0.34827 0,0.39456 -0.0322,0.4087 -0.4388,0.19348 z M -0.11895712,275.57709 c -0.392863,-0.20787 0.678976,-1.49573 1.24481002,-1.49573 0.686167,0 1.130948,0.65648 0.808775,1.19362 -0.242666,0.4045 -1.50818802,0.59068 -2.05358502,0.30211 z M 278.62288,275.24227 c -0.93746,-0.15886 -0.84173,-0.18592 0.65821,-0.18608 0.96538,-9e-5 2.84129,0.0793 4.16867,0.17635 l 2.41346,0.17653 -3.07167,0.01 c -1.68939,0.005 -3.56531,-0.0741 -4.16867,-0.17634 z m -43.73456,-0.31355 c 0,-0.17578 0.60296,-0.24137 1.70678,-0.18567 2.0078,0.10131 1.98519,0.15674 -0.13437,0.32939 -1.04638,0.0852 -1.57241,0.0372 -1.57241,-0.14372 z m -7.45976,-1.15503 c 0,-0.19527 0.43306,-0.26345 1.26365,-0.19896 1.44981,0.11259 1.43431,0.15461 -0.13003,0.35259 -0.76958,0.0974 -1.13362,0.048 -1.13362,-0.15363 z m 9.33257,0.11355 c -0.11169,-0.0956 0.17823,-0.18904 0.64419,-0.20762 1.00772,-0.0401 1.09639,0.0693 0.20304,0.25067 -0.35431,0.0719 -0.73555,0.0526 -0.84723,-0.043 z m -13.5378,-0.19183 c 0.30169,-0.0644 0.79534,-0.0644 1.09701,0 0.30169,0.0644 0.0548,0.11711 -0.5485,0.11711 -0.60336,0 -0.85018,-0.0527 -0.54851,-0.11711 z m 11.40901,0 c 0.30168,-0.0644 0.79535,-0.0644 1.09702,0 0.30169,0.0644 0.0548,0.11711 -0.54849,0.11711 -0.60337,0 -0.8502,-0.0527 -0.54853,-0.11711 z m 2.52315,-0.77496 c -2.17209,-0.0794 -3.85052,-0.1686 -3.72987,-0.19815 0.12058,-0.0296 1.94722,-0.0862 4.05898,-0.12597 3.00299,-0.0565 3.83957,-0.004 3.83957,0.24204 0,0.17285 -0.0494,0.29452 -0.10981,0.27039 -0.0603,-0.0241 -1.88687,-0.10887 -4.05896,-0.18831 z m -9.21054,-0.46815 c 0.15157,-0.12978 0.45944,-0.17585 0.6841,-0.10238 0.60864,0.19903 0.49516,0.33836 -0.27561,0.33836 -0.37627,0 -0.56009,-0.10619 -0.40849,-0.23598 z m 3.72545,-0.24209 c 0,-0.13524 0.19745,-0.18131 0.4388,-0.10239 0.24134,0.0789 0.43881,0.18957 0.43881,0.24589 0,0.0563 -0.19747,0.10238 -0.43881,0.10238 -0.24135,0 -0.4388,-0.11064 -0.4388,-0.24588 z m -12.72546,-0.78852 c 0,-0.17915 1.30604,-0.32326 1.49139,-0.16456 0.1117,0.0956 -0.17822,0.18904 -0.64417,0.20761 -0.46596,0.0186 -0.84722,-6.6e-4 -0.84722,-0.043 z m 2.85226,-0.1265 c -0.14911,-0.1277 -0.0737,-0.23218 0.16763,-0.23218 0.24135,0 0.56085,0.10448 0.70998,0.23218 0.14912,0.1277 0.0737,0.23218 -0.16764,0.23218 -0.24132,0 -0.56084,-0.10448 -0.70999,-0.23218 z m 16.83299,-2.06473 c 0.54457,-0.18256 2.25517,-0.0929 2.25517,0.11827 0,0.049 -0.64174,0.0874 -1.42611,0.0855 -0.96959,-0.003 -1.23498,-0.0676 -0.82906,-0.20373 z m 4.88803,-0.0386 c 0,-0.13524 0.19746,-0.18131 0.4388,-0.10239 0.24134,0.0789 0.43883,0.18957 0.43883,0.24589 0,0.0563 -0.19749,0.10238 -0.43883,0.10238 -0.24134,0 -0.4388,-0.11064 -0.4388,-0.24588 z m 14.04187,-0.71182 -1.53584,-0.46669 2.63286,0.11941 c 1.44807,0.0657 2.83031,0.12561 3.07166,0.13318 0.24134,0.008 -0.12682,0.16984 -0.81806,0.3606 -1.53537,0.42368 -1.46397,0.4268 -3.35062,-0.1465 z m -5.58647,-0.59628 c 0.42695,-0.0588 1.01936,-0.055 1.31642,0.009 0.29711,0.0636 -0.0521,0.11177 -0.77624,0.10703 -0.72406,-0.005 -0.9671,-0.0568 -0.54018,-0.11563 z m 25.77165,-0.078 -3.29107,-0.15525 3.62017,-0.003 c 1.9911,-0.001 3.62018,0.0874 3.62018,0.19708 0,0.10972 -0.14818,0.18067 -0.3291,0.15767 -0.18106,-0.023 -1.8101,-0.1117 -3.62018,-0.19709 z m -47.07136,-0.18172 c -0.91014,-0.0398 -1.53825,-0.1721 -1.3958,-0.29401 0.14231,-0.12191 0.44761,-0.15996 0.67824,-0.0845 0.23065,0.0754 0.3651,0.0238 0.2988,-0.1146 -0.079,-0.16491 1.43065,-0.27911 4.37719,-0.3311 3.56016,-0.0628 4.49779,-0.0139 4.49779,0.23447 0,0.17262 0.20915,0.31384 0.4647,0.31384 0.25562,0 0.35549,-0.0935 0.22196,-0.20785 -0.13362,-0.11432 0.0684,-0.27104 0.44875,-0.34827 1.21528,-0.24675 1.63258,-0.15807 1.03853,0.22068 -0.5026,0.32043 -0.43897,0.33038 0.56506,0.0883 0.92475,-0.22293 1.31686,-0.20406 2.14612,0.10327 l 1.01465,0.37603 -1.08493,0.0402 c -2.0019,0.0741 -11.59843,0.0767 -13.27106,0.003 z m 15.25776,-0.0438 c -0.14912,-0.12769 -0.062,-0.23217 0.19351,-0.23217 0.25556,0 0.46468,0.10448 0.46468,0.23217 0,0.12771 -0.0871,0.23219 -0.19349,0.23219 -0.10641,0 -0.31555,-0.10448 -0.4647,-0.23219 z m 20.40458,0 c 0,-0.2909 0.46566,-0.2909 1.31642,0 0.53228,0.18201 0.46927,0.22576 -0.32909,0.22863 -0.54304,0.002 -0.98733,-0.10092 -0.98733,-0.22863 z m 3.94927,0.14094 c 0,-0.0502 0.29619,-0.15139 0.65821,-0.2249 0.36202,-0.0735 0.65821,-0.0324 0.65821,0.0913 0,0.12369 -0.29619,0.2249 -0.65821,0.2249 -0.36202,0 -0.65821,-0.0411 -0.65821,-0.0912 z m -24.55405,-5.48738 c 0.7372,-0.24108 4.57484,-0.21557 5.30253,0.0352 0.37895,0.13062 -0.58989,0.1945 -2.61364,0.17232 -1.7687,-0.0194 -2.97871,-0.11278 -2.68889,-0.20756 z m 15.6956,-2.93849 c 0.31677,-0.0671 0.69526,-0.0588 0.84106,0.0183 0.14591,0.0771 -0.11339,0.13203 -0.57591,0.12195 -0.51121,-0.0111 -0.61518,-0.0662 -0.26515,-0.14028 z m -32.17013,-0.77007 c -0.66031,-0.15014 -0.36159,-0.20359 1.20673,-0.21587 1.14638,-0.009 2.08434,0.0882 2.08434,0.21587 0,0.2789 -2.06442,0.2789 -3.29107,0 z m -10.312,-0.46437 c -0.98538,-0.16697 -0.93219,-0.18824 0.52262,-0.20904 0.89079,-0.0127 1.74168,0.0814 1.89083,0.20904 0.31371,0.26857 -0.82851,0.26857 -2.41345,0 z m 24.79268,-1.16074 c -4.29523,-0.20223 -6.26244,-0.42304 -6.63868,-0.74513 -0.19756,-0.16915 0.92938,-0.19586 3.64386,-0.0864 4.12862,0.16651 7.84847,0.6237 7.3256,0.90036 -0.16953,0.0897 -0.42353,0.14815 -0.56435,0.1298 -0.14081,-0.0184 -1.83566,-0.10774 -3.76643,-0.19865 z m 36.5308,0.062 c 1.02572,-0.0489 2.70414,-0.0489 3.72986,0 1.02571,0.0489 0.18654,0.0889 -1.86494,0.0889 -2.05143,0 -2.89063,-0.04 -1.86492,-0.0889 z m -21.03537,-0.22079 c 0.31677,-0.0671 0.69525,-0.0588 0.84106,0.0183 0.1459,0.0772 -0.1134,0.13203 -0.57594,0.12194 -0.51121,-0.0111 -0.61518,-0.0661 -0.26512,-0.14027 z m -55.42698,-1.69885 c -0.83743,-0.19039 -0.83239,-0.20029 0.10962,-0.21586 0.54302,-0.009 0.9873,0.0882 0.9873,0.21586 0,0.1277 -0.0494,0.22484 -0.1098,0.21586 -0.0603,-0.009 -0.50464,-0.1061 -0.98731,-0.21586 z m -32.7735,-0.39078 c 0.31677,-0.0671 0.69524,-0.0588 0.84106,0.0183 0.14591,0.0771 -0.11339,0.13203 -0.57594,0.12194 -0.5112,-0.0111 -0.61516,-0.0661 -0.26512,-0.14027 z m 44.56177,-8.08332 c 0.69131,-0.19183 1.86622,-0.34878 2.61092,-0.34878 2.02711,0 0.87014,0.38078 -1.67375,0.55086 -2.15415,0.14403 -2.17119,0.14035 -0.93717,-0.20208 z"
       style="fill: #ff0000; stroke-width:0.31919122" />
  </g>
</svg>
