<?xml version="1.0" encoding="UTF-8" standalone="no"?>
<svg
   xmlns:dc="http://purl.org/dc/elements/1.1/"
   xmlns:cc="http://creativecommons.org/ns#"
   xmlns:rdf="http://www.w3.org/1999/02/22-rdf-syntax-ns#"
   xmlns:svg="http://www.w3.org/2000/svg"
   xmlns="http://www.w3.org/2000/svg"
   id="svg8"
   version="1.1"
   viewBox="0 0 203.2 203.2"
   height="8in"
   width="8in">
  <defs
     id="defs2" />
  <metadata
     id="metadata5">
    <rdf:RDF>
      <cc:Work
         rdf:about="">
        <dc:format>image/svg+xml</dc:format>
        <dc:type
           rdf:resource="http://purl.org/dc/dcmitype/StillImage" />
        <dc:title></dc:title>
      </cc:Work>
    </rdf:RDF>
  </metadata>
  <g
     transform="translate(0,-93.799965)"
     id="layer1">
    <path
       id="path4133"
       d="m 105.53215,295.53396 c -0.46521,-0.19992 -0.52532,-0.30981 -0.17639,-0.32258 0.29104,-0.0106 0.76729,0.13448 1.05833,0.32258 0.64488,0.41674 0.0879,0.41674 -0.88194,0 z m -11.884213,-4.47431 c 0.25466,-0.10192 0.55894,-0.0894 0.67616,0.0279 0.11723,0.11723 -0.0911,0.20063 -0.46302,0.18532 -0.41097,-0.0169 -0.49456,-0.10054 -0.21314,-0.21315 z m 1.41112,0 c 0.25466,-0.10192 0.55893,-0.0894 0.67615,0.0279 0.11723,0.11723 -0.0911,0.20063 -0.46302,0.18532 -0.41096,-0.0169 -0.49456,-0.10054 -0.21313,-0.21315 z m 3.24114,0.10163 c 0,-0.0766 0.62165,-0.19861 1.38144,-0.27107 0.759793,-0.0725 1.306043,-0.01 1.213903,0.13934 -0.16766,0.27129 -2.595343,0.39451 -2.595343,0.13173 z m -2.04853,-0.9537 c 0.1909,-0.58057 2.40131,-0.89394 2.40131,-0.34043 0,0.20634 -0.19844,0.3773 -0.44097,0.37998 -0.24254,0.004 -0.81942,0.10608 -1.28195,0.22987 -0.62701,0.16781 -0.79962,0.0993 -0.67839,-0.26942 z m 16.606403,-0.48846 c 0.70637,-0.40805 1.14484,-0.46531 1.5875,-0.20739 0.55863,0.32547 0.55051,0.35768 -0.094,0.37186 -0.38805,0.008 -1.10243,0.10188 -1.5875,0.2074 -0.86416,0.18799 -0.86229,0.18051 0.094,-0.37187 z M 66.550197,288.817 c -1.06715,-0.58148 -2.65465,-1.38162 -3.52778,-1.77803 -2.07239,-0.9409 -4.29288,-2.10482 -4.86564,-2.55041 -0.84931,-0.66075 0.10475,-0.92608 1.51901,-0.42249 0.77349,0.27545 1.61122,0.50779 1.86161,0.51629 0.25039,0.008 0.89406,0.3399 1.43038,0.73643 0.93106,0.68837 2.17131,0.65803 2.17131,-0.0531 0,-0.60653 1.60584,-0.30575 3.70417,0.69388 2.62498,1.25049 3.38398,2.05172 2.9709,3.13623 -0.45586,1.1968 -2.78207,1.07361 -5.26396,-0.27877 z m 26.10556,0.71974 c 0.69245,-0.4475 2.01648,-0.4475 2.29305,0 0.13264,0.21459 -0.37733,0.35066 -1.30209,0.34738 -1.11146,-0.004 -1.37787,-0.0973 -0.99096,-0.34738 z m 6.70278,0 c 0.29104,-0.1881 0.767293,-0.33324 1.058333,-0.32258 0.34892,0.0127 0.28883,0.12266 -0.17639,0.32258 -0.969823,0.41674 -1.526813,0.41674 -0.881943,0 z m -14.81667,-0.81439 c 0,-0.1603 -0.3175,-0.19071 -0.70556,-0.0676 -0.41415,0.13145 -0.70555,0.0634 -0.70555,-0.16478 0,-0.26885 0.57099,-0.30335 1.85208,-0.11193 1.01865,0.15218 3.04271,0.25558 4.49792,0.22979 2.05546,-0.0364 2.40968,0.0233 1.5875,0.26829 -1.27778,0.38058 -6.52639,0.25686 -6.52639,-0.15381 z m 10.89913,-0.2739 c 0.46473,-0.18587 0.7746,-0.40837 0.68858,-0.49438 -0.086,-0.086 -1.73624,-0.24461 -3.66719,-0.35249 -1.93094,-0.10788 -5.06073,-0.41554 -6.95508,-0.68372 -1.89435,-0.26818 -3.78449,-0.39864 -4.2003,-0.28992 -0.45679,0.11946 -0.66976,0.0581 -0.53806,-0.15497 0.13175,-0.21315 -0.38664,-0.36181 -1.3105,-0.37578 -0.84065,-0.0127 -1.98548,-0.25411 -2.54405,-0.53643 -0.55857,-0.28233 -1.23612,-0.43515 -1.50567,-0.33959 -0.29935,0.10615 -0.39421,0.0187 -0.24376,-0.22479 0.15922,-0.2576 -0.0818,-0.39853 -0.68165,-0.39853 -0.51038,0 -1.17482,-0.24684 -1.47653,-0.54857 -0.30171,-0.3017 -0.9033,-0.50207 -1.33687,-0.44528 -0.43356,0.0568 -1.03672,-0.10287 -1.34034,-0.35482 -0.30362,-0.25199 -0.76225,-0.42069 -1.01918,-0.3749 -0.25693,0.0458 -1.39971,-0.34138 -2.53951,-0.86046 -1.13981,-0.51907 -2.18996,-0.94375 -2.33368,-0.94375 -0.55679,0 -2.11552,-1.48629 -1.90907,-1.82033 0.1199,-0.19399 -0.11938,-0.58903 -0.53171,-0.87782 -0.41234,-0.28882 -0.64163,-0.69998 -0.50954,-0.91373 0.16023,-0.25926 0.019,-0.30371 -0.42431,-0.1336 -0.36547,0.14023 -0.55164,0.14214 -0.41372,0.004 0.13793,-0.13794 0.0788,-0.45808 -0.13151,-0.71141 -0.40851,-0.49223 4.95786,1.73041 6.3123,2.6144 0.44474,0.29026 1.38087,0.57319 2.08029,0.62868 0.69942,0.0555 1.37065,0.26102 1.49162,0.45678 0.3266,0.52846 2.06472,1.11457 2.64496,0.89189 0.27787,-0.10661 2.14456,0.35483 4.1482,1.02546 5.33558,1.78583 15.05546,3.2627 15.90197,2.41617 0.25316,-0.25315 0.13269,-0.30519 -0.39012,-0.16845 -0.59127,0.15462 -0.75637,0.0403 -0.75637,-0.52387 0,-0.66065 -0.27596,-0.73855 -3.26319,-0.92128 -1.79476,-0.10979 -4.29507,-0.19668 -5.55625,-0.19304 -1.26345,0.004 -2.1032,-0.1203 -1.87024,-0.27598 0.26098,-0.17442 -0.48171,-0.53506 -1.94028,-0.94217 -5.49403,-1.53352 -13.18653,-4.40076 -12.92818,-4.8188 0.0845,-0.13667 -0.4669,-0.49675 -1.22525,-0.80017 -0.75835,-0.30342 -1.48107,-0.71713 -1.60604,-0.91934 -0.12496,-0.20218 -0.51874,-0.36763 -0.87505,-0.36763 -0.80634,0 -4.94807,-1.84407 -4.95205,-2.20486 -0.005,-0.48098 1.0208,-0.27531 2.19342,0.43967 1.38538,0.84465 2.60016,0.97694 1.5286,0.16647 -0.37663,-0.28487 -0.93226,-0.52299 -1.23472,-0.52916 -0.94002,-0.019 -1.97894,-0.99396 -1.5338,-1.43909 0.28392,-0.28392 0.49705,-0.18807 0.7872,0.35408 0.21883,0.40891 0.67804,0.74345 1.02046,0.74345 0.34243,0 0.7734,0.14926 0.95773,0.33168 0.18433,0.18242 0.75254,0.40654 1.26269,0.49809 0.51015,0.0915 1.43751,0.4301 2.0608,0.75244 1.64109,0.8486 7.17297,2.62653 7.51488,2.41522 0.67529,-0.41734 -0.57494,-1.15479 -1.71116,-1.0093 -0.65299,0.0836 -1.29568,-0.0233 -1.4282,-0.23784 -0.14484,-0.23435 -0.0796,-0.29016 0.16355,-0.13988 0.22247,0.13751 0.66926,0.10181 0.99286,-0.0793 0.52497,-0.29379 0.50301,-0.37497 -0.2038,-0.75325 -0.43571,-0.23315 -0.87686,-0.33927 -0.98036,-0.23576 -0.10349,0.10347 -0.41874,-0.0424 -0.70054,-0.3242 -0.2818,-0.2818 -0.88853,-0.51238 -1.34829,-0.51238 -0.45976,0 -0.93404,-0.15875 -1.05396,-0.35278 -0.11991,-0.19402 -0.51535,-0.35277 -0.87874,-0.35277 -0.36339,0 -0.99983,-0.47625 -1.41431,-1.05834 -0.41448,-0.58208 -0.96393,-1.05833 -1.22101,-1.05833 -0.25706,0 -0.56604,-0.25707 -0.68661,-0.57125 -0.17347,-0.45209 -0.0405,-0.53711 0.63716,-0.40757 0.66972,0.12803 0.88882,-0.006 1.00522,-0.61496 0.15179,-0.79403 -0.65766,-1.58122 -1.62591,-1.58122 -0.26929,0 -1.09621,-0.55563 -1.83762,-1.23472 -0.7414,-0.6791 -1.52396,-1.23472 -1.73902,-1.23472 -0.21507,0 -0.92956,-0.55563 -1.58777,-1.23473 -1.50784,-1.55568 -0.70584,-1.62316 1.04846,-0.0882 2.05404,1.79722 3.00616,2.53894 3.03595,2.36513 0.0151,-0.0882 0.6141,0.28719 1.33111,0.83407 0.71701,0.54691 2.01415,1.23645 2.88255,1.53232 0.86839,0.29591 1.66782,0.68189 1.77651,0.85775 0.10869,0.17586 0.57098,0.31976 1.02731,0.31976 0.45633,0 1.79634,0.30085 2.97779,0.66855 1.18146,0.36773 2.1481,0.60797 2.1481,0.53392 0,-0.074 -1.19441,-0.70142 -2.65425,-1.39417 -1.45984,-0.69275 -2.56172,-1.40928 -2.44863,-1.59227 0.1131,-0.18298 -0.0419,-0.3327 -0.34435,-0.3327 -0.3025,0 -0.54999,-0.23813 -0.54999,-0.52917 0,-0.38093 0.41996,-0.54063 1.4993,-0.57009 0.82462,-0.0226 1.18577,-0.1204 0.80255,-0.21755 -0.38322,-0.0971 -0.91093,-0.4359 -1.17269,-0.75283 -0.26176,-0.3169 -0.37541,-0.37776 -0.25256,-0.13522 0.14716,0.29051 -0.0546,0.43914 -0.5912,0.43557 -0.55399,-0.004 -0.67014,-0.097 -0.36308,-0.29192 0.31311,-0.19868 -0.039,-0.53876 -1.14873,-1.10952 -0.88012,-0.45265 -1.51721,-0.90604 -1.41575,-1.0075 0.10146,-0.10146 0.37233,0.004 0.60193,0.23301 0.48547,0.48546 1.11464,0.56487 0.83029,0.10477 -0.10628,-0.17197 0.13567,-0.39867 0.53766,-0.5038 0.72991,-0.19089 0.72981,-0.19261 -0.0703,-1.27483 -0.45879,-0.62054 -1.14978,-1.10254 -1.61681,-1.1278 -1.49321,-0.0808 -2.74582,-0.24782 -3.72602,-0.49706 -0.62637,-0.15924 -0.97014,-0.10707 -0.97014,0.14725 0,0.21664 0.43656,0.39635 0.97014,0.39931 0.75598,0.004 0.85332,0.0809 0.44097,0.34738 -0.43571,0.28159 -0.4409,0.34293 -0.0294,0.34738 0.27487,0.004 0.40071,0.10446 0.27964,0.22553 -0.12107,0.12107 -0.77795,-0.10901 -1.45975,-0.51128 -0.68179,-0.40227 -1.79982,-0.83651 -2.4845,-0.96495 -0.69648,-0.13064 -1.24489,-0.4439 -1.24489,-0.71103 0,-0.60162 -1.29297,-1.33166 -1.56861,-0.88565 -0.24155,0.39081 0.38027,2.14264 0.76613,2.15837 0.42527,0.0173 2.31645,1.76749 2.12106,1.96285 -0.0957,0.0957 -1.26492,-0.70421 -2.59834,-1.7775 -2.38989,-1.92366 -2.95357,-2.24222 -2.95357,-1.6691 0,0.47745 1.61994,1.85173 1.87826,1.59343 0.36468,-0.3647 0.28386,0.70185 -0.14681,1.93724 -0.32631,0.93606 -0.27,1.29149 0.36813,2.324 0.41433,0.67042 1.34174,1.50653 2.06091,1.85801 1.05375,0.51502 1.32903,0.86166 1.41811,1.78562 0.12922,1.3402 0.084,1.35364 -1.62815,0.48355 -1.12193,-0.57013 -4.07254,-1.65333 -5.18517,-1.90352 -0.19403,-0.0436 -0.35278,0.15879 -0.35278,0.44983 0,0.29104 0.38292,0.58328 0.85094,0.64939 0.59676,0.0843 0.714,0.20486 0.39249,0.40354 -0.78272,0.48377 -2.2585,-0.4367 -4.23339,-2.64043 -1.04327,-1.16417 -2.00152,-2.19604 -2.12944,-2.29306 -0.30062,-0.228 -3.17089,-5.16886 -3.17089,-5.45835 0,-0.38785 2.95635,1.81881 4.23334,3.15986 1.72475,1.81127 4.50203,3.80319 4.93206,3.53745 0.66129,-0.40873 0.3726,-2.22772 -0.52234,-3.29128 -0.95845,-1.13905 -1.08164,-1.96264 -0.51606,-3.4502 0.25266,-0.66456 0.25266,-1.07558 0,-1.32824 -0.20124,-0.20126 -0.36084,-0.61197 -0.35467,-0.91271 0.009,-0.42961 0.13005,-0.39557 0.56566,0.15875 0.53843,0.6852 0.54702,0.68008 0.29773,-0.17639 -0.30768,-1.0571 -0.17869,-0.91944 -1.13778,-1.21423 -0.61744,-0.18979 -1.02414,0.0102 -1.84261,0.9064 -0.57766,0.63246 -1.13503,1.06517 -1.23859,0.9616 -0.26991,-0.26991 0.20364,-2.41766 0.53306,-2.41766 0.5741,0 -0.53363,-1.65082 -1.37377,-2.04731 -0.48334,-0.22811 -0.89791,-0.37673 -0.92126,-0.33023 -0.42226,0.84021 -0.89088,2.15995 -0.89088,2.50888 0,0.50193 3.04737,4.56237 3.56582,4.75121 0.18127,0.066 0.5889,0.62167 0.90584,1.23472 0.50603,0.97882 0.50896,1.05887 0.024,0.65656 -0.35448,-0.29401 -0.63107,-0.33059 -0.77229,-0.1021 -0.27486,0.44475 -0.9056,-0.0587 -4.60166,-3.67312 -3.00705,-2.94061 -4.41337,-5.12769 -4.41337,-6.86361 0,-0.83735 -0.26968,-1.16854 -1.4993,-1.84122 -1.8827,-1.02989 -2.92507,-2.91761 -2.38926,-4.32689 0.51762,-1.36144 0.48381,-3.63657 -0.0462,-3.10659 -0.52532,0.52532 -2.41526,-2.34389 -2.41526,-3.66677 0,-0.49883 -0.39687,-1.37862 -0.88194,-1.9551 -0.48507,-0.57647 -0.88195,-1.33025 -0.88195,-1.67509 0,-0.99628 -3.13752,-7.44055 -3.73402,-7.66946 -0.29692,-0.11392 -0.46958,-0.39028 -0.38369,-0.61412 0.0859,-0.22384 -0.13163,-0.76239 -0.48339,-1.19676 -0.82757,-1.02204 -1.17653,-0.46835 -0.91716,1.45524 0.17821,1.32165 0.0926,1.55762 -0.82709,2.27947 l -1.02588,0.80522 -0.39712,-0.74203 c -0.29162,-0.5449 -0.29358,-1.03904 -0.007,-1.86009 0.30431,-0.87295 0.28757,-1.19617 -0.0763,-1.4743 -0.61587,-0.47071 -1.397,-3.14244 -1.48544,-5.08077 -0.0754,-1.65333 -0.074,-1.65167 -2.98979,-3.38935 -1.90927,-1.13785 -2.38209,-1.99157 -3.22366,-5.82084 -0.23454,-1.06715 -0.80032,-2.38908 -1.25729,-2.93761 -0.97799,-1.17391 -1.12669,-1.71757 -1.36762,-4.99989 -0.0997,-1.35819 -0.27558,-3.73944 -0.39086,-5.29166 -0.13826,-1.86151 -0.37708,-2.9187 -0.70156,-3.10564 -0.37805,-0.2178 -0.40308,-0.44948 -0.10809,-1.00067 0.2276,-0.42529 0.3075,-1.67413 0.19628,-3.06797 -0.26374,-3.30526 -0.23572,-4.76879 0.0955,-4.98579 0.1571,-0.10294 0.47976,-1.29841 0.71702,-2.6566 0.23727,-1.3582 0.58779,-3.07728 0.77894,-3.82018 0.19114,-0.74291 0.35591,-1.9572 0.36614,-2.69843 0.0145,-1.05424 0.29318,-1.6304 1.27962,-2.64598 1.11487,-1.14782 1.2093,-1.3811 0.8148,-2.01279 -0.24907,-0.39883 -0.27885,-0.61107 -0.0674,-0.48039 0.20835,0.12878 0.37882,0.066 0.37882,-0.13947 0,-0.20548 0.2082,-0.3736 0.46265,-0.3736 0.83713,0 2.00679,-1.41147 2.00679,-2.42169 0,-0.60036 0.35396,-1.31563 0.9092,-1.83724 0.6522,-0.61272 0.8698,-1.12264 0.7698,-1.80398 -0.0767,-0.5224 0.001,-0.91976 0.17324,-0.88303 0.17195,0.0367 0.68009,-0.89532 1.1292,-2.07122 1.19665,-3.13322 2.09442,-4.77128 3.98477,-7.27056 0.92896,-1.22821 2.14135,-3.10623 2.69419,-4.17339 1.15214,-2.22395 1.58364,-2.82222 2.03554,-2.82222 0.77932,0 0.63344,1.14959 -0.32275,2.54328 -0.57118,0.83251 -1.83788,2.94241 -2.81489,4.68866 -3.41752,6.10824 -4.04542,7.73379 -2.38469,6.17362 0.48507,-0.4557 0.88195,-1.19775 0.88195,-1.649 0,-0.56743 0.20426,-0.82045 0.66236,-0.82045 0.85177,0 1.56854,-0.87015 1.61634,-1.96223 0.0207,-0.4719 0.32311,-1.13627 0.67211,-1.47636 0.60561,-0.59016 0.62961,-0.58618 0.52637,0.0872 -0.0595,0.38806 0.0243,0.91701 0.18629,1.17546 0.22816,0.36407 0.52412,0.24989 1.31411,-0.50698 0.5608,-0.53728 1.01964,-1.27205 1.01964,-1.63283 0,-0.37199 0.4785,-0.91612 1.10532,-1.25692 0.60793,-0.33052 1.98201,-1.35501 3.0535,-2.27664 1.0715,-0.92164 2.1616,-1.6757 2.42246,-1.6757 0.26085,0 0.47428,-0.22875 0.47428,-0.50834 0,-0.2796 0.18327,-0.62162 0.40728,-0.76007 0.25234,-0.15595 0.31152,-0.0968 0.15557,0.15557 -0.14915,0.24134 -0.0276,0.40729 0.29828,0.40729 0.30249,0 0.54999,-0.23005 0.54999,-0.51122 0,-0.59761 2.12609,-2.31101 2.86765,-2.31101 0.2794,0 0.78527,-0.46938 1.12416,-1.04307 0.36158,-0.61211 0.81514,-0.9667 1.09779,-0.85824 0.2649,0.10165 0.69655,-0.11919 0.95921,-0.49076 0.26267,-0.37157 1.06034,-0.78394 1.7726,-0.91639 0.91127,-0.16946 1.87602,-0.81261 3.25563,-2.17035 1.07833,-1.06124 2.1223,-1.92952 2.31993,-1.92952 0.4596,0 3.18358,-2.44991 3.18358,-2.86327 0,-0.17145 -0.3875,-0.31173 -0.86112,-0.31173 -0.47362,0 -0.97455,-0.18353 -1.11318,-0.40784 -0.18059,-0.29219 0.10206,-0.35037 0.99678,-0.20518 1.37977,0.22391 2.85612,-0.61167 7.32752,-4.14724 1.26118,-0.99723 3.30406,-2.49594 4.53973,-3.33047 2.25259,-1.52134 2.40298,-2.08488 0.57555,-2.15679 -0.63589,-0.025 -0.62495,-0.0601 0.11086,-0.35519 0.9911,-0.39749 0.69882,-1.03896 -0.47338,-1.03896 -0.57681,0 -0.79015,0.15611 -0.6637,0.48564 0.23759,0.61914 -1.51165,1.10146 -2.13087,0.58755 -0.76072,-0.63134 -3.77752,0.002 -6.19152,1.29912 -1.26118,0.67785 -4.03931,2.4655 -6.17361,3.97255 -2.13431,1.50705 -4.75368,3.2958 -5.82083,3.97499 -1.06716,0.67919 -3.57771,2.6832 -5.57901,4.45336 -2.00131,1.77015 -3.7238,3.21846 -3.82777,3.21846 -0.35864,0 3.50386,-4.06144 5.48257,-5.76494 1.09116,-0.9394 3.17455,-2.51329 4.62976,-3.49752 1.45521,-0.98424 3.60369,-2.67626 4.7744,-3.76006 1.49105,-1.38036 3.63457,-2.75115 7.15691,-4.5769 2.76559,-1.4335 4.97046,-2.78287 4.89972,-2.99861 -0.0707,-0.21574 -0.69873,-0.44075 -1.39554,-0.50003 -1.60346,-0.13641 -4.254,1.17799 -8.61799,4.27366 -1.78016,1.26279 -3.31502,2.21762 -3.41078,2.12186 -0.0958,-0.0958 -0.0109,-0.64235 0.18863,-1.21464 0.47985,-1.37651 3.83415,-4.07467 5.6852,-4.5731 0.80999,-0.21811 1.88144,-0.68761 2.38101,-1.04333 1.22587,-0.87289 8.07742,-4.28754 10.91622,-5.44038 3.58072,-1.45412 8.48919,-2.61352 12.87976,-3.04224 2.21115,-0.21591 4.2262,-0.31638 4.4779,-0.22327 0.85285,0.31549 -1.26861,0.85057 -3.15835,0.79659 -1.01865,-0.0291 -1.85209,0.0749 -1.85209,0.23112 0,0.15621 -0.60325,0.28401 -1.34055,0.28401 -0.73731,0 -1.53106,0.1905 -1.76389,0.42333 -0.69957,0.69958 -0.47901,0.99802 0.43111,0.58334 0.62351,-0.28409 1.15733,-0.28372 1.97509,0.001 0.80669,0.28122 1.32048,0.28371 1.83396,0.009 0.51653,-0.27644 0.64717,-0.27472 0.47354,0.006 -0.3349,0.54187 2.45347,0.50874 3.44102,-0.0409 0.48824,-0.27173 1.88421,-0.38872 3.81012,-0.31929 2.11079,0.0761 3.35044,-0.0439 4.05694,-0.39264 0.74689,-0.36868 2.72864,-0.5229 7.453653,-0.58002 5.82167,-0.0704 6.59231,-0.009 8.07052,0.6451 0.89888,0.39761 2.13004,0.73207 2.73597,0.74326 0.60593,0.0112 2.21294,0.33317 3.57114,0.71552 1.35819,0.38235 4.13632,1.01553 6.17361,1.40707 9.65549,1.85562 18.56892,5.94445 26.0368,11.9438 1.88108,1.51118 4.08407,3.0851 4.89553,3.49761 0.81143,0.41251 1.57057,0.90411 1.68698,1.09244 0.11639,0.18832 0.42859,0.25914 0.69381,0.15737 0.26519,-0.10176 0.60212,0.009 0.74877,0.24631 0.17047,0.27582 0.11974,0.34058 -0.14072,0.17962 -0.61785,-0.38187 -0.48676,-0.008 0.18962,0.54048 0.48584,0.39409 0.5437,0.39582 0.31097,0.009 -0.20567,-0.34163 -0.10206,-0.43948 0.36922,-0.34872 0.36029,0.0694 0.71201,0.44183 0.78158,0.82766 0.19473,1.08013 0.61253,1.33097 1.39887,0.83989 0.56998,-0.35595 0.82673,-0.3589 1.24202,-0.0142 0.41491,0.34435 0.55376,0.34365 0.66943,-0.004 0.0966,-0.28967 0.22384,-0.23495 0.37603,0.16166 0.12654,0.32974 0.0669,0.59953 -0.13247,0.59953 -0.19939,0 -0.26282,0.16134 -0.14093,0.35853 0.12185,0.19719 0.36936,0.2672 0.54998,0.15557 0.18062,-0.11163 0.3284,-0.0279 0.3284,0.1861 0,0.21398 0.19844,0.35706 0.44097,0.31796 0.24254,-0.0391 0.75847,0.0567 1.14653,0.213 3.30256,1.32988 3.06218,1.29257 2.80412,0.43523 -0.12985,-0.43145 -0.69486,-1.26825 -1.25553,-1.85958 -0.56067,-0.59132 -1.0262,-1.22632 -1.03445,-1.41111 -0.008,-0.18479 -0.79478,-0.93718 -1.7478,-1.67198 -1.22817,-0.94693 -1.66864,-1.50314 -1.5125,-1.90995 0.16294,-0.42469 0.09,-0.49832 -0.28071,-0.28314 -0.27548,0.15995 -0.38149,0.15919 -0.23555,-0.002 0.14594,-0.16089 0.004,-0.58322 -0.31926,-0.93851 -1.14166,-1.26151 0.24648,-0.6456 1.82566,0.81005 2.44817,2.25662 1.86235,1.00399 -0.80162,-1.71409 -1.66501,-1.69883 -2.80603,-2.55239 -3.79356,-2.83777 -0.77675,-0.22448 -2.35737,-1.20725 -3.5125,-2.18394 -1.1551,-0.97669 -2.22614,-1.7758 -2.38005,-1.7758 -0.15392,0 -0.27986,-0.22793 -0.27986,-0.50652 0,-0.27859 -0.99219,-1.00996 -2.20486,-1.62526 -1.21268,-0.6153 -3.25173,-1.72933 -4.53126,-2.47561 -4.29066,-2.50255 -8.29963,-3.69525 -14.17517,-4.21726 -3.37274,-0.29966 -4.72599,-0.46154 -7.57552,-0.90618 -0.73325,-0.11442 -1.14653,-0.37947 -1.14653,-0.73529 0,-0.42103 0.11335,-0.4623 0.46599,-0.16965 0.25629,0.2127 0.93098,0.37402 1.4993,0.35849 0.56833,-0.0155 1.7477,0.15935 2.62082,0.38863 0.87313,0.22927 3.41313,0.41356 5.64445,0.40952 6.21115,-0.0112 8.35812,0.65129 13.58194,4.19116 1.3582,0.92036 3.97757,2.59738 5.82084,3.72671 1.84326,1.12932 4.02607,2.59672 4.85069,3.2609 0.82462,0.66417 1.49931,1.105 1.49931,0.97963 0,-0.45065 2.22811,0.93669 3.73479,2.32551 0.84557,0.77943 2.68192,3.10753 4.08075,5.17355 1.39884,2.06602 3.26852,4.61242 4.15488,5.65866 0.88632,1.04625 1.92902,2.42895 2.31708,3.07268 0.38805,0.64372 2.24476,3.43895 4.12605,6.21162 1.88126,2.77267 3.83618,5.951 4.34428,7.06294 0.50811,1.11195 1.07901,2.11764 1.2687,2.23487 0.18965,0.11723 0.59355,0.83464 0.89747,1.59424 0.30395,0.75961 0.69412,1.38111 0.86709,1.38111 0.17297,0 0.31446,0.34675 0.31446,0.77057 0,0.42381 0.29549,1.41599 0.6566,2.20486 0.36113,0.78886 0.84377,2.10902 1.07251,2.93367 l 0.41593,1.49938 1.04492,-0.77253 c 0.73117,-0.54058 0.91507,-0.85278 0.61246,-1.03979 -0.23781,-0.14698 -0.52998,-0.10936 -0.64925,0.0836 -0.13233,0.21409 -0.37864,0.15588 -0.63197,-0.14936 -0.34618,-0.4171 -0.22941,-0.47858 0.70266,-0.37006 l 1.11778,0.13015 -0.67151,-0.78709 c -0.54751,-0.64173 -0.5575,-0.69879 -0.0541,-0.30899 0.33955,0.26294 0.61736,0.37139 0.61736,0.24098 0,-0.50647 -1.19542,-2.51612 -1.72935,-2.90725 -0.30942,-0.22667 -0.4438,-0.53094 -0.29856,-0.67616 0.1452,-0.14521 0.26645,-0.0391 0.26942,0.23574 0.005,0.40743 0.0604,0.41301 0.30303,0.0302 0.21125,-0.3332 0.47505,-0.0262 0.90858,1.05729 0.33602,0.83976 0.72955,1.60667 0.87454,1.70425 0.39663,0.2669 2.27407,5.31744 2.42196,6.51526 0.0711,0.57539 0.30723,1.36914 0.5249,1.76389 0.21763,0.39474 0.43197,0.95584 0.47625,1.24688 0.0443,0.29105 0.17632,1.16417 0.29333,1.94028 0.11702,0.77611 0.42789,2.04611 0.69078,2.82222 1.57892,4.66127 2.09483,9.74543 2.07616,20.46112 -0.0141,8.0649 -0.12911,10.14686 -0.75088,13.58192 l -0.73431,4.05695 0.16041,-3.175 c 0.47226,-9.34887 0.56243,-13.9045 0.32342,-16.34133 -0.37419,-3.81506 -0.8056,-1.89366 -0.50076,2.23023 0.49808,6.73744 -1.01664,17.11327 -3.02066,20.69192 -0.2884,0.51502 -0.51322,1.38815 -0.49957,1.94028 0.0222,0.89747 0.06,0.92908 0.35655,0.29834 0.23686,-0.50366 0.26649,-0.30176 0.10365,0.70556 -0.12549,0.77611 -0.26159,1.88736 -0.30248,2.46944 -0.0409,0.58209 -0.49399,1.93146 -1.00693,2.99862 -0.5129,1.06715 -0.93415,2.14809 -0.93602,2.40206 -0.004,0.25957 -0.18228,0.3513 -0.4118,0.20941 -0.2811,-0.17371 -0.34491,-0.01 -0.20479,0.52613 0.19872,0.75992 -1.30475,5.77931 -2.24155,7.48341 -0.44619,0.81167 -0.50013,0.98693 -0.61937,2.01161 -0.0296,0.254 -0.21064,0.3648 -0.40245,0.24627 -0.19519,-0.12065 -0.2618,0.0109 -0.15127,0.29912 0.21286,0.55474 -1.28362,3.17154 -2.08386,3.64384 -0.26822,0.15833 -0.57781,0.52599 -0.68795,0.81704 -0.14418,0.38092 -0.20807,0.33005 -0.22814,-0.18161 -0.0152,-0.39095 0.29795,-1.31862 0.6961,-2.0615 0.39818,-0.74291 0.67105,-1.50943 0.60639,-1.70338 -0.0646,-0.19396 -0.35049,0.0987 -0.63518,0.65038 -0.28469,0.55167 -0.61662,1.08242 -0.73762,1.17944 -0.12097,0.097 -0.57563,0.96086 -1.01032,1.91967 -0.43466,0.95882 -1.40752,2.56075 -2.16182,3.55985 -0.75431,0.9991 -1.3715,1.925 -1.3715,2.05758 0,0.25826 -2.17554,3.58507 -2.90922,4.44867 -0.42725,0.50292 -0.47914,0.63309 -0.57446,1.4406 -0.0243,0.20549 -0.18164,0.28861 -0.34974,0.18471 -0.16807,-0.10389 -0.58957,0.12489 -0.93659,0.50836 -0.71801,0.79336 -0.61391,0.83933 0.7783,0.34364 l 0.9931,-0.35363 -1.0463,0.86858 c -0.61662,0.51188 -1.13648,0.72266 -1.26588,0.51329 -0.29919,-0.48412 -0.79163,0.20486 -1.53493,2.14757 -0.54928,1.43559 -1.24548,2.35825 -3.13786,4.15847 -2.13434,2.03042 -3.64952,3.27452 -4.20116,3.44961 -0.34755,0.11031 -0.63193,0.34364 -0.63193,0.51851 0,0.17487 -0.26416,0.21657 -0.58702,0.0927 -0.38668,-0.14838 -0.5025,-0.0885 -0.33937,0.17551 0.26786,0.43339 -2.37271,2.54134 -3.18347,2.54134 -0.26194,0 -0.47625,0.15875 -0.47625,0.35278 0,0.19403 -0.25756,0.35278 -0.57234,0.35278 -0.46878,0 -0.49291,-0.0958 -0.13321,-0.52917 0.70414,-0.84843 0.0219,-0.61091 -1.18378,0.41208 -0.95317,0.80878 -0.99748,0.91271 -0.31504,0.73843 0.43681,-0.11151 0.70528,-0.0588 0.59655,0.11713 -0.10876,0.17593 -0.47939,0.31986 -0.82366,0.31986 -0.34424,0 -1.16833,0.53238 -1.83124,1.18311 -0.66294,0.6507 -1.99908,1.63005 -2.96922,2.17636 -0.97014,0.54627 -2.0417,1.22911 -2.38125,1.5174 -0.55041,0.46732 -0.61736,0.46083 -0.61736,-0.0597 0,-0.75964 -0.5485,-0.73914 -1.70942,0.0639 -1.78428,1.2342 -2.06351,1.34169 -1.47165,0.56656 0.50676,-0.66371 0.50038,-0.66583 -0.20504,-0.067 -0.40043,0.33997 -0.81555,0.53065 -0.92248,0.42375 -0.10689,-0.10689 -1.28464,0.30985 -2.61718,0.92612 -1.33259,0.61626 -3.05785,1.41361 -3.83396,1.77193 -3.28736,1.51768 -7.12561,2.94777 -8.05652,3.00175 -0.55051,0.0317 -1.17758,0.23463 -1.39348,0.45053 -0.21586,0.21587 -0.90699,0.3925 -1.53585,0.3925 -0.62883,0 -1.24545,0.16521 -1.37022,0.36714 -0.12482,0.20189 -0.51432,0.27591 -0.86562,0.16439 -0.35171,-0.11162 -0.88353,0.0422 -1.18364,0.34227 -0.29972,0.29972 -1.30866,0.63623 -2.24204,0.74782 -0.93338,0.11158 -2.96707,0.50429 -4.51929,0.87273 -3.01269,0.71512 -14.11514,1.81025 -15.27559,1.50679 -0.382613,-0.10005 -1.679013,0.07 -2.880893,0.37793 -2.43241,0.62315 -3.08758,0.68717 -1.81245,0.17709 z m 16.034153,-3.67583 c 3.31826,-0.23672 5.6811,-0.8151 3.50488,-0.85796 -0.85937,-0.0169 -1.0861,-0.15102 -0.93239,-0.55153 0.1518,-0.39557 -0.0559,-0.52917 -0.82247,-0.52917 -0.56405,0 -1.20212,0.1766 -1.41799,0.39247 -0.21586,0.21586 -1.71605,0.44443 -3.33375,0.50789 -3.70405,0.14538 -11.942003,1.09894 -12.241263,1.41697 -0.23736,0.25227 9.943733,0 15.242983,-0.37867 z m -0.0272,-0.77202 c 0.34326,-0.0894 0.81951,-0.0836 1.05834,0.013 0.23886,0.0966 -0.042,0.16979 -0.62407,0.16263 -0.58208,-0.007 -0.77748,-0.0863 -0.43427,-0.17572 z m -17.381113,-0.46108 c 0,-0.19403 -0.07,-0.35278 -0.15557,-0.35278 -0.0856,0 -0.25368,0.15875 -0.3736,0.35278 -0.11991,0.19402 -0.0499,0.35277 0.15557,0.35277 0.20548,0 0.3736,-0.15875 0.3736,-0.35277 z m 2.91042,0.10382 c -0.43657,-0.0841 -1.15094,-0.0841 -1.58751,0 -0.43656,0.0841 -0.0794,0.15286 0.79376,0.15286 0.87312,0 1.23031,-0.0688 0.79375,-0.15286 z m 3.559913,-0.26134 c 0.14561,-0.37945 -0.20087,-0.56977 -1.351313,-0.74231 -0.85093,-0.1276 -1.7555,-0.14863 -2.01016,-0.0467 -0.25467,0.10192 0.0926,0.21622 0.77169,0.25407 0.6791,0.0378 0.95691,0.14136 0.61737,0.23008 -1.05874,0.27668 -0.67586,0.81516 0.57961,0.81516 0.71888,0 1.275203,-0.20383 1.392803,-0.51029 z m -7.686433,-0.51791 c -0.10968,-0.17745 2e-5,-0.40393 0.24376,-0.50331 0.24375,-0.0994 -0.38761,-0.1579 -1.40301,-0.13007 -1.85758,0.0509 -2.08489,0.40788 -0.44687,0.70171 1.53196,0.27485 1.81087,0.26296 1.60612,-0.0683 z m 13.563323,-0.16792 c 0,-0.0758 -0.55562,-0.20268 -1.23472,-0.28194 -0.6791,-0.0793 -1.23472,-0.0173 -1.23472,0.13779 0,0.15508 0.55562,0.28194 1.23472,0.28194 0.6791,0 1.23472,-0.062 1.23472,-0.13779 z m 4.7625,-0.21499 c 0.25788,-0.41726 -0.0873,-0.41726 -1.05833,0 -0.68023,0.29231 -0.67783,0.3041 0.0674,0.32798 0.4251,0.0138 0.87104,-0.13395 0.99095,-0.32798 z m 5.82084,-0.39052 c 0,-0.21477 0.21879,-0.30657 0.48616,-0.20394 0.2674,0.10258 0.62459,0.049 0.79375,-0.11917 0.16919,-0.16814 1.74583,-0.62562 3.50368,-1.01664 3.33382,-0.74157 8.82506,-2.68104 9.16968,-3.23864 0.10972,-0.17752 -0.12738,-0.32275 -0.5269,-0.32275 -0.39949,0 -0.72637,0.17571 -0.72637,0.39052 0,0.21477 -0.21545,0.30783 -0.47876,0.2068 -0.26328,-0.10104 -0.93796,0.11906 -1.4993,0.48909 -0.56131,0.37006 -1.37774,0.67388 -1.81431,0.67515 -0.43656,0 -0.79375,0.16107 -0.79375,0.3551 0,0.19403 -0.45628,0.35278 -1.01398,0.35278 -0.55768,0 -1.70861,0.25358 -2.55764,0.56353 -0.849,0.30995 -1.98307,0.55859 -2.52014,0.55259 -0.53707,-0.006 -0.89683,0.11793 -0.79947,0.27545 0.0973,0.15751 -0.29668,0.38114 -0.87559,0.49692 -0.9651,0.19304 -1.52026,0.93373 -0.69984,0.93373 0.19403,0 0.35278,-0.17572 0.35278,-0.39052 z m -1.41112,-0.29284 c 0,-0.18313 -0.59009,-0.23954 -1.32291,-0.12647 -1.8318,0.28268 -1.88789,0.45706 -0.14701,0.45706 0.80847,0 1.46992,-0.14877 1.46992,-0.33059 z m -4.34283,-1.56059 c 1.46731,-0.27079 2.20842,-0.54761 1.92885,-0.72037 -0.75237,-0.46499 -5.69991,0.60943 -5.69991,1.23779 0,0.20042 0.31084,0.2643 0.69409,0.14267 0.38175,-0.12115 1.7664,-0.41819 3.07697,-0.66009 z m -11.685823,-0.96446 c 0.40056,-0.36967 0.986503,-0.67214 1.302103,-0.67214 0.31559,0 0.66976,-0.15526 0.78705,-0.34505 0.13491,-0.2183 -0.99128,-0.30449 -3.065993,-0.23467 -6.62288,0.22285 -15.01102,-0.93264 -16.22433,-2.23499 -0.36538,-0.39218 -1.01533,-0.71551 -1.44434,-0.71847 -0.57049,-0.004 -0.65177,-0.0867 -0.30261,-0.3079 0.39138,-0.24801 0.39662,-0.45346 0.0291,-1.14022 -0.27083,-0.50602 -0.50638,-0.66347 -0.59499,-0.39761 -0.0807,0.242 -0.41126,0.43758 -0.73464,0.43462 -0.45691,-0.004 -0.48302,-0.0719 -0.11717,-0.30385 0.36054,-0.22853 0.30554,-0.34163 -0.23483,-0.48295 -0.3881,-0.10149 -0.8633,-0.0268 -1.05602,0.16588 -0.23199,0.23198 -0.92743,0.0477 -2.05822,-0.54547 -2.49255,-1.30746 -9.46652,-3.15422 -7.42459,-1.96606 0.59961,0.34889 1.91146,0.83784 8.53898,3.18265 2.9818,1.05495 2.47692,1.40991 -0.63927,0.44944 -4.91857,-1.51603 -8.55028,-2.73703 -8.70934,-2.92813 -0.097,-0.11659 -0.40337,-0.26116 -0.68079,-0.32127 -0.27742,-0.0602 -0.93693,-0.41734 -1.46557,-0.79375 -0.52864,-0.37645 -1.1351,-0.68443 -1.34768,-0.68443 -0.6677,0 -0.42091,0.66284 0.40723,1.09376 0.43657,0.22719 1.07775,0.70901 1.42486,1.07075 0.3471,0.36174 1.11054,0.65772 1.69651,0.65772 0.63761,0 0.9757,0.14516 0.84198,0.36152 -0.12288,0.19883 -0.0926,0.32495 0.0674,0.28025 0.15994,-0.0447 0.76705,0.16799 1.34913,0.47262 1.07642,0.56338 3.77395,1.46494 5.58739,1.86746 0.82594,0.1833 0.92697,0.31175 0.57699,0.73343 -0.27571,0.33221 -0.73739,0.43264 -1.31847,0.2868 -0.62471,-0.15681 -0.81891,-0.10262 -0.64437,0.17982 0.13741,0.22232 0.70734,0.40421 1.26652,0.40421 0.55918,0 1.10914,0.14958 1.22213,0.33239 0.11298,0.1828 0.9161,0.43896 1.78471,0.56924 0.8686,0.13024 1.57927,0.38057 1.57927,0.55626 0,0.17568 0.39894,0.21932 0.88653,0.0969 0.48759,-0.12238 1.0829,-0.0631 1.32292,0.1318 0.43816,0.35578 2.29554,0.65331 5.90444,0.94587 2.84449,0.23057 4.21908,0.41063 4.38254,0.57411 0.0796,0.0796 1.54706,0.0901 3.26098,0.0233 2.46035,-0.096 3.26948,-0.26307 3.8445,-0.79375 z m 8.281273,-2.10544 c 0.12989,-0.21019 0.67468,-0.27633 1.25447,-0.1524 0.80218,0.17152 0.89832,0.13807 0.44235,-0.15396 -0.67105,-0.42979 -3.91192,-0.0939 -3.62186,0.37539 0.10396,0.16824 0.0379,0.30593 -0.14679,0.30593 -0.18472,0 -0.41752,-0.21279 -0.51732,-0.47286 -0.11659,-0.30385 -0.56245,-0.41695 -1.24743,-0.31641 -0.77757,0.11413 -1.0102,0.30184 -0.85979,0.69378 0.16693,0.43504 0.61174,0.49494 2.33649,0.31467 1.17165,-0.12248 2.23362,-0.38985 2.35988,-0.59414 z m 3.70649,-0.30463 c -0.11109,-0.17974 0.713,-0.43 1.83127,-0.55612 2.22254,-0.25072 5.90617,-1.18254 5.65757,-1.43118 -0.16267,-0.16263 -6.09949,0.6671 -7.7518,1.08342 -0.77004,0.19402 -0.8714,0.33228 -0.52917,0.72192 0.47622,0.54218 1.10388,0.6864 0.79213,0.18196 z m -29.946323,-5.13884 c -0.55138,-0.28783 -1.48932,-0.93292 -2.08433,-1.43358 -0.72892,-0.61338 -1.33517,-0.84674 -1.85841,-0.7154 -0.50127,0.1258 -0.98812,-0.0389 -1.37329,-0.46447 -0.87818,-0.97039 -2.66569,-1.24386 -3.21549,-0.49198 -0.63476,0.86811 0.30526,2.21929 1.54889,2.22641 1.01764,0.006 3.66892,0.83806 3.43798,1.07918 -0.0791,0.0826 0.91162,0.18913 2.20164,0.23665 2.26662,0.0835 2.31179,0.0689 1.34301,-0.43681 z m -7.79354,-2.27888 c -0.37518,-0.1362 -0.52635,-0.34392 -0.33593,-0.4616 0.36391,-0.22494 1.47114,0.29675 1.18424,0.55795 -0.0914,0.0832 -0.47313,0.0399 -0.84831,-0.0964 z m 78.469653,-0.26518 c 0,-0.23953 -1.22788,0.5605 -2.29306,1.49405 -0.80102,0.70206 -0.65095,0.64887 0.61736,-0.21876 0.92163,-0.63045 1.6757,-1.20434 1.6757,-1.27529 z m -0.17639,1.30694 c 0.11991,-0.19403 0.0499,-0.35278 -0.15558,-0.35278 -0.20546,0 -0.37359,0.15875 -0.37359,0.35278 0,0.19403 0.07,0.35278 0.15557,0.35278 0.0856,0 0.25369,-0.15875 0.3736,-0.35278 z m 7.58472,-2.46945 c 0,-0.19402 -0.07,-0.35277 -0.15558,-0.35277 -0.0855,0 -0.25368,0.15875 -0.37359,0.35277 -0.11991,0.19403 -0.0499,0.35278 0.15558,0.35278 0.20546,0 0.37359,-0.15875 0.37359,-0.35278 z M 50.322387,266.627 c 0,-0.42306 -0.27974,-0.5745 -1.5875,-0.85937 l -1.05833,-0.23054 0.83283,0.71092 c 0.87451,0.74651 1.813,0.94269 1.813,0.37899 z m 118.395053,-7.69374 c 0.25774,-0.33954 0.47368,-0.82606 0.47985,-1.08112 0.006,-0.25506 0.48747,-0.86448 1.06955,-1.35428 0.58209,-0.48976 1.05834,-1.06736 1.05834,-1.28351 0,-0.21618 -0.635,0.22705 -1.41111,0.98489 -0.77612,0.75783 -1.41112,1.63145 -1.41112,1.9413 0,0.30988 -0.1905,0.75392 -0.42333,0.98675 -0.23283,0.23284 -0.29002,0.42334 -0.12707,0.42334 0.16291,0 0.50712,-0.27782 0.76489,-0.61737 z m -0.87503,-2.82222 c 0.43879,-0.55954 0.42633,-0.57199 -0.13321,-0.13321 -0.58762,0.46087 -0.77452,0.75057 -0.48415,0.75057 0.0732,0 0.35105,-0.27781 0.61736,-0.61736 z m 2.07166,-1.89371 c 0,-0.19403 -0.15875,-0.25467 -0.35278,-0.13476 -0.19403,0.11991 -0.35278,0.37677 -0.35278,0.57079 0,0.19403 0.15875,0.25467 0.35278,0.13477 0.19403,-0.11991 0.35278,-0.37677 0.35278,-0.5708 z m 3.18029,-1.36948 c 0.25661,-0.20338 0.73656,-1.41111 0.56077,-1.41111 -0.21593,0 -1.97718,2.67938 -1.97718,3.00789 0,0.17825 0.26861,-0.0684 0.5969,-0.54815 0.32833,-0.47974 0.69709,-0.95162 0.81951,-1.04863 z M 43.355027,251.94273 c 0.68648,-1.37944 0.77196,-1.9171 0.30478,-1.9171 -0.33508,0 -1.45131,2.14379 -1.45131,2.78733 0,0.75988 0.53881,0.35091 1.14653,-0.87023 z m -0.61736,-2.62266 c 0.11991,-0.19403 0.0593,-0.35278 -0.13475,-0.35278 -0.19403,0 -0.45089,0.15875 -0.57081,0.35278 -0.11991,0.19403 -0.0593,0.35278 0.13475,0.35278 0.19403,0 0.45089,-0.15875 0.57081,-0.35278 z m -3.81596,-2.53559 c -0.11261,-0.28141 -0.19621,-0.19784 -0.21313,0.21315 -0.0153,0.37186 0.0681,0.58025 0.18528,0.46302 0.11723,-0.11723 0.12976,-0.4215 0.0278,-0.67617 z m 144.045133,-5.22552 c 0,-0.19403 -0.07,-0.35278 -0.15557,-0.35278 -0.0856,0 -0.25368,0.15875 -0.37359,0.35278 -0.11991,0.19403 -0.0499,0.35278 0.15557,0.35278 0.20546,0 0.37359,-0.15875 0.37359,-0.35278 z m 0.526,-5.29167 c 0.24532,-0.85672 0.23667,-0.86176 -0.30191,-0.17639 -0.30494,0.38806 -0.55947,0.93575 -0.56565,1.21709 -0.0159,0.72587 0.55933,0.0358 0.86756,-1.0407 z m 0.66696,-2.31136 c 0.12047,-0.31398 0.0613,-0.45558 -0.13868,-0.33197 -0.19181,0.11854 -0.34872,0.36492 -0.34872,0.54748 0,0.50743 0.25287,0.39564 0.4874,-0.21551 z m 3.98692,-6.92701 c -0.11261,-0.28141 -0.19622,-0.19784 -0.21315,0.21315 -0.0152,0.37186 0.0681,0.58025 0.18531,0.46302 0.11723,-0.11723 0.12975,-0.4215 0.0279,-0.67617 z m -1.72022,-1.88348 c -0.10862,-0.10858 -0.30589,0.0872 -0.43836,0.43512 -0.19145,0.50278 -0.15092,0.54328 0.19748,0.19748 0.24109,-0.23932 0.3495,-0.52398 0.24088,-0.6326 z m 2.89034,0.14411 c 0,-0.19403 -0.15875,-0.25467 -0.35277,-0.13476 -0.19403,0.11991 -0.35278,0.37677 -0.35278,0.57079 0,0.19403 0.15875,0.25468 0.35278,0.13477 0.19402,-0.11991 0.35277,-0.37677 0.35277,-0.5708 z m -2.24063,-3.5693 c -0.0895,-0.34233 -0.0187,-0.6224 0.15699,-0.6224 0.17586,0 0.31976,-0.71639 0.31976,-1.59198 0,-0.87556 0.3175,-2.7377 0.70555,-4.13805 0.77932,-2.81221 0.92294,-4.6765 0.33214,-4.31137 -0.21548,0.13317 -0.28106,0.70157 -0.15501,1.34373 0.16803,0.85609 0.12965,0.99081 -0.16644,0.58378 -0.2993,-0.41152 -0.33479,-0.31345 -0.15956,0.44097 0.13511,0.58159 0.0782,0.97014 -0.14207,0.97014 -0.20207,0 -0.36441,0.43656 -0.36071,0.97014 0.004,0.53357 -0.30519,2.16076 -0.68644,3.61597 -0.39116,1.49292 -0.61249,3.17948 -0.508,3.8705 0.17897,1.18322 0.19604,1.19532 0.50589,0.35779 0.17635,-0.47675 0.24744,-1.14692 0.1579,-1.48922 z m 3.58362,-20.56368 c -0.10862,-0.10862 -0.30589,0.0872 -0.43836,0.43509 -0.19145,0.50278 -0.15092,0.5433 0.19749,0.19748 0.24109,-0.2393 0.34949,-0.52396 0.24087,-0.63257 z m -0.23304,-4.04761 c -0.1258,-1.26119 -0.31609,-2.13431 -0.42284,-1.94028 -0.30201,0.54896 0.0492,4.87517 0.36823,4.53525 0.15582,-0.16605 0.18041,-1.33379 0.0546,-2.59497 z m 3.11259,-11.81806 c 0,-0.19403 -0.15388,-0.11465 -0.34198,0.17639 -0.1881,0.29104 -0.34198,0.68791 -0.34198,0.88194 0,0.19403 0.15388,0.11466 0.34198,-0.17639 0.1881,-0.29104 0.34198,-0.68791 0.34198,-0.88194 z m -2.07592,-7.26892 c -0.18591,-0.46474 -0.34808,-0.65952 -0.36036,-0.43285 -0.03,0.55055 0.38107,1.59509 0.55795,1.4182 0.0772,-0.0772 -0.0116,-0.52062 -0.19759,-0.98535 z m -0.38273,-6.86301 c 0,-0.3025 -0.15875,-0.45188 -0.35277,-0.33196 -0.19403,0.11992 -0.35278,0.36741 -0.35278,0.54999 0,0.18257 0.15875,0.33195 0.35278,0.33195 0.19402,0 0.35277,-0.24749 0.35277,-0.54998 z m -1.89851,-3.17251 c -0.12047,-0.31394 -0.0613,-0.45555 0.13868,-0.33195 0.50892,0.31453 0.42743,-0.0836 -0.21904,-1.07022 -0.74341,-1.13457 -1.09502,-0.86741 -0.91281,0.69353 0.0952,0.81519 0.3321,1.25613 0.67497,1.25613 0.33253,0 0.45046,-0.20288 0.3182,-0.54749 z m -9.84394,-13.46283 c -0.32339,-0.32337 -0.67868,-0.49724 -0.78955,-0.38637 -0.11088,0.11087 0.063,0.46617 0.38636,0.78955 0.32339,0.32338 0.67867,0.49725 0.78955,0.38638 0.11088,-0.11088 -0.063,-0.46618 -0.38636,-0.78956 z m -95.238863,-27.763 c 0.26685,-0.26685 -0.25066,-0.26265 -1.63015,0.0133 -0.60634,0.12126 -1.10243,0.34267 -1.10243,0.49201 0,0.2875 2.37986,-0.15255 2.73258,-0.50526 z m 4.32297,-0.56001 c 0.42791,-0.27653 0.37728,-0.34301 -0.26458,-0.34738 -0.43656,-0.003 -0.79375,0.15335 -0.79375,0.34738 0,0.442 0.37438,0.442 1.05833,0 z m 1.69775,-0.33073 c 0.0882,-0.26459 -0.0441,-0.39688 -0.30868,-0.30868 -0.25466,0.0849 -0.53248,0.3627 -0.61737,0.61736 -0.0882,0.26458 0.0441,0.39687 0.30869,0.30868 0.25466,-0.0849 0.53247,-0.3627 0.61736,-0.61736 z m 28.538943,162.25574 c 0.10146,-0.38806 0.4438,-0.69303 0.7607,-0.67772 0.36576,0.0176 0.41515,0.0928 0.13525,0.20581 -0.24253,0.0979 -0.44097,0.40283 -0.44097,0.67768 0,0.27489 -0.1439,0.49978 -0.31976,0.49978 -0.17586,0 -0.23671,-0.3175 -0.13522,-0.70555 z m -42.054743,-0.79206 c -5.01803,-1.07117 -8.0003,-2.04216 -8.21068,-2.67331 -0.13577,-0.40732 0.22652,-0.32678 7.49323,1.66525 2.90388,0.79604 5.55357,1.44734 5.88821,1.44734 0.33464,0 0.70654,0.15875 0.82646,0.35278 0.30651,0.49593 -0.40111,0.40248 -5.99722,-0.79206 z m 47.801393,0.0865 c 0.29104,-0.1881 0.76729,-0.34198 1.05833,-0.34198 0.47036,0 0.47036,0.038 0,0.34198 -0.29104,0.1881 -0.76729,0.34198 -1.05833,0.34198 -0.47036,0 -0.47036,-0.038 0,-0.34198 z m -2.18281,-0.59376 c 0.25467,-0.10192 0.55894,-0.0894 0.67617,0.0279 0.11722,0.11723 -0.0912,0.20063 -0.46303,0.18532 -0.41098,-0.0169 -0.49455,-0.10055 -0.21314,-0.21315 z m -71.107043,-3.435 c -1.67188,-0.60758 -2.23112,-1.26185 -0.93372,-1.0923 0.5622,0.0734 1.10155,0.16206 1.19856,0.19692 0.097,0.0349 0.49956,0.0389 0.89455,0.009 0.50581,-0.0383 0.71815,0.15878 0.71815,0.6665 0,0.80028 -0.21226,0.82515 -1.87754,0.21992 z m 16.8454,-4.69328 -1.23472,-0.47311 1.209,0.19152 c 1.18053,0.18701 1.70312,0.42683 1.40744,0.64583 -0.0808,0.0599 -0.70262,-0.10403 -1.38172,-0.36424 z m 75.494453,0.11673 c 0,-0.0763 0.24638,-0.23318 0.54748,-0.34875 0.31397,-0.12048 0.45557,-0.0613 0.33196,0.13867 -0.20715,0.33521 -0.87944,0.4958 -0.87944,0.21008 z m -83.799233,-0.59037 c -0.1279,-0.20694 -0.15688,-0.45191 -0.0644,-0.54441 0.0925,-0.0925 0.26213,0.0769 0.37703,0.37628 0.23854,0.62163 0.0352,0.73095 -0.31263,0.16813 z m 5.12978,-0.6821 c -0.47037,-0.30399 -0.47037,-0.34198 0,-0.34198 0.29104,0 0.76729,0.15388 1.05833,0.34198 0.47037,0.30399 0.47037,0.34199 0,0.34199 -0.29104,0 -0.76729,-0.15389 -1.05833,-0.34199 z m -1.41111,-0.72637 c 0,-0.20549 0.15875,-0.27548 0.35278,-0.15557 0.19403,0.11991 0.35278,0.28804 0.35278,0.37359 0,0.0856 -0.15875,0.15558 -0.35278,0.15558 -0.19403,0 -0.35278,-0.16814 -0.35278,-0.3736 z m 87.568693,-0.18157 c 0.33493,-0.35066 0.7057,-0.54081 0.82395,-0.42256 0.11825,0.11825 -0.15575,0.40517 -0.60896,0.63758 -0.78769,0.40396 -0.79714,0.39451 -0.21499,-0.21502 z M 58.789057,275.7784 c -0.29104,-0.1881 -0.88327,-0.34441 -1.31607,-0.34738 -0.43279,-0.004 -1.65548,-0.56102 -2.71708,-1.24012 -1.0616,-0.67909 -2.08719,-1.23472 -2.27909,-1.23472 -0.19189,0 -0.44589,-0.15691 -0.56443,-0.34872 -0.12393,-0.20052 0.0189,-0.2588 0.33596,-0.13712 0.40046,0.15367 0.49175,0.0559 0.33335,-0.35684 -0.11997,-0.31263 -0.32021,-0.57196 -0.44497,-0.57626 -0.12476,-0.004 -0.62371,-0.32703 -1.10878,-0.71713 l -0.88195,-0.70926 1.32292,0.60608 c 0.7276,0.3333 1.32292,0.81477 1.32292,1.06986 0,0.2551 0.13659,0.46384 0.30354,0.46384 0.16696,0 0.88114,0.39197 1.58709,0.87104 0.70594,0.47907 1.52185,0.77957 1.81312,0.66781 0.29127,-0.1118 0.52958,-0.0567 0.52958,0.12234 0,0.17904 0.635,0.68245 1.41111,1.11863 0.77611,0.4362 1.41111,0.86233 1.41111,0.94692 0,0.25658 -0.49842,0.16288 -1.05833,-0.19897 z m -9.57,-6.2618 c -0.43881,-0.55954 -0.42633,-0.572 0.13319,-0.13321 0.33955,0.26631 0.61736,0.54412 0.61736,0.61736 0,0.29037 -0.28969,0.10347 -0.75055,-0.48415 z m -1.57602,-1.23472 -0.67204,-0.79375 0.79375,0.67204 c 0.43656,0.3696 0.79375,0.72679 0.79375,0.79375 0,0.28229 -0.28391,0.0739 -0.91546,-0.67204 z m -3.04151,-2.25457 c -2.37265,-2.08414 -2.34656,-2.05641 -1.51108,-1.60447 0.90713,0.49071 3.96088,3.20682 3.62774,3.22665 -0.13904,0.008 -1.09154,-0.72172 -2.11666,-1.62218 z m 136.446413,-0.83224 c 0.28918,-1.08842 0.86057,-1.76565 0.86057,-1.01992 0,0.29274 -0.24634,0.84043 -0.54744,1.21709 -0.5261,0.65811 -0.5383,0.65041 -0.31313,-0.19717 z M 59.338987,262.8908 c -0.37663,-0.28487 -0.53538,-0.51291 -0.35277,-0.50673 0.1826,0.006 0.64016,0.2443 1.01679,0.52916 0.37664,0.28487 0.53539,0.51291 0.35278,0.50673 -0.1826,-0.006 -0.64016,-0.2443 -1.0168,-0.52916 z m 3.50701,0.28067 c -0.38805,-0.0978 -0.99285,-0.37882 -1.34399,-0.62442 -0.56404,-0.39451 -0.50238,-0.43519 0.52917,-0.34904 1.62333,0.13554 1.57918,0.11585 1.57918,0.704 0,0.29105 -0.0132,0.51076 -0.0294,0.48825 -0.0162,-0.0226 -0.3469,-0.12097 -0.73495,-0.21879 z m 0.61736,-1.23843 c -1.11876,-0.35892 -1.43014,-0.75438 -0.86766,-1.10201 0.36381,-0.22486 2.54336,0.83185 2.54336,1.2331 0,0.3658 -0.16762,0.35267 -1.6757,-0.13109 z m -23.19514,-0.26575 c -0.11991,-0.19403 -0.0499,-0.35278 0.15557,-0.35278 0.20548,0 0.3736,0.15875 0.3736,0.35278 0,0.19403 -0.07,0.35278 -0.15557,0.35278 -0.0856,0 -0.25368,-0.15875 -0.3736,-0.35278 z m -6.81614,-2.99861 c -0.38155,-0.48507 -0.9487,-0.88194 -1.26032,-0.88194 -0.62159,0 -0.70522,-0.29383 -0.27604,-0.96975 0.19428,-0.30593 0.62157,0.0444 1.39844,1.14652 1.19617,1.69704 1.28819,2.16751 0.13792,0.70517 z M 178.38613,248.34993 c 0.004,-0.14552 0.15928,-0.50271 0.34738,-0.79375 0.27654,-0.42792 0.34301,-0.37726 0.34738,0.26458 0.004,0.43657 -0.15335,0.79375 -0.34738,0.79375 -0.19403,0 -0.35034,-0.11906 -0.34738,-0.26458 z M 30.283817,239.79077 c 0.11251,-1.47652 0.81402,-2.03938 1.33306,-1.06952 0.44606,0.83347 0.27416,1.25949 -0.72374,1.79356 -0.62503,0.3345 -0.68459,0.26373 -0.60932,-0.72404 z m -7.4781,-2.13823 c 0,-0.90406 1.16764,-0.80151 1.34474,0.11811 0.0815,0.42334 -0.10846,0.61331 -0.61332,0.61331 -0.50485,0 -0.73142,-0.22656 -0.73142,-0.73142 z m 5.65567,-1.62045 c 0.0106,-1.27762 0.0404,-1.31371 0.53936,-0.65355 0.59729,0.79018 0.54717,1.64038 -0.10961,1.85907 -0.30279,0.10078 -0.43746,-0.27697 -0.42975,-1.20552 z m -7.41956,-1.6619 c 0,-0.65532 -0.24815,-1.39746 -0.55146,-1.64916 -0.49827,-0.41353 -0.49467,-0.48945 0.0372,-0.78712 0.71465,-0.39994 1.32973,0.16877 1.82503,1.68755 0.43319,1.32831 0.23303,1.94028 -0.63465,1.94028 -0.5329,0 -0.67616,-0.25245 -0.67616,-1.19155 z m 3.76472,-1.37654 c -1.03034,-2.17127 0.14976,-3.71556 1.86227,-2.43698 1.1959,0.89284 1.1344,1.73482 -0.20199,2.76538 l -1.10139,0.84939 z m -0.23694,-3.86189 c 0,-0.64308 0.62541,-1.17609 0.97261,-0.82889 0.12107,0.12104 -0.0483,0.48846 -0.37624,0.81647 -0.54997,0.54995 -0.59637,0.55094 -0.59637,0.0123 z m -5.64444,-3.80058 c 0,-1.04115 0.45236,-1.40063 0.88389,-0.70242 0.28394,0.45943 -0.12617,1.76075 -0.55489,1.76075 -0.18095,0 -0.329,-0.47625 -0.329,-1.05833 z M 186.34769,161.60429 c -0.32413,-0.84458 -0.0715,-0.90944 0.42785,-0.10985 0.23685,0.37923 0.28751,0.68951 0.11261,0.68951 -0.17495,0 -0.41815,-0.26084 -0.54046,-0.57966 z m -1.34581,-3.58825 c -0.32865,-0.52105 -0.87623,-1.32751 -1.2168,-1.79213 -0.61031,-0.83254 -0.60844,-0.83802 0.12777,-0.37823 0.67674,0.42262 2.06217,2.74214 1.79652,3.00779 -0.0605,0.0605 -0.37884,-0.31638 -0.70749,-0.83743 z m 1.49274,-1.14457 c 0,-0.20548 0.15875,-0.27549 0.35278,-0.15557 0.19403,0.11991 0.35278,0.28803 0.35278,0.3736 0,0.0856 -0.15875,0.15556 -0.35278,0.15556 -0.19403,0 -0.35278,-0.16812 -0.35278,-0.37359 z m -6.85317,-8.04277 c -0.79791,-1.54302 -0.68184,-1.84995 0.17071,-0.45149 0.3978,0.65247 0.64703,1.26254 0.55386,1.3557 -0.0932,0.0932 -0.4192,-0.31373 -0.72457,-0.90421 z M 31.625167,146.23375 c 0,-0.12216 1.06288,-1.30615 2.36196,-2.63109 1.29909,-1.32494 2.02637,-1.93274 1.61619,-1.35065 -0.83109,1.17938 -3.97815,4.32928 -3.97815,3.98174 z m 145.344453,-7.00117 c 0,-0.20548 0.15875,-0.27549 0.35278,-0.15557 0.19403,0.11991 0.35278,0.28803 0.35278,0.3736 0,0.0856 -0.15875,0.15556 -0.35278,0.15556 -0.19403,0 -0.35278,-0.16812 -0.35278,-0.37359 z m -1.76389,-2.26415 c -3.798,-4.59616 -6.31285,-7.1703 -6.44835,-6.60042 -0.096,0.40363 -0.23329,0.25458 -0.42672,-0.46323 -0.27834,-1.03289 -1.41955,-2.52528 -3.97909,-5.20347 -0.69536,-0.7276 -1.10878,-1.32291 -0.9187,-1.32291 0.19007,0 0.8836,0.5551 1.54118,1.23356 0.83368,0.86014 1.27568,1.10405 1.46007,0.80571 0.17586,-0.28456 0.38936,-0.0992 0.63747,0.55328 0.20518,0.53964 0.37303,1.13297 0.37303,1.31853 0,0.18555 0.39688,0.5182 0.88195,0.73921 0.48506,0.22102 0.88194,0.53013 0.88194,0.68693 0,0.15679 0.22207,0.19986 0.49347,0.0957 0.27142,-0.10415 0.59989,-0.0172 0.72993,0.19321 0.13007,0.21043 0.36625,0.30237 0.5249,0.20433 0.15864,-0.098 0.50486,0.0886 0.76937,0.41474 0.33076,0.40785 0.34325,0.51028 0.04,0.32807 -0.24254,-0.14571 -0.44097,-0.0968 -0.44097,0.10867 0,0.20548 0.15056,0.3736 0.33461,0.3736 0.4494,0 1.77927,1.29363 2.98834,2.90698 0.54388,0.72572 1.12593,1.23478 1.29343,1.13126 0.1675,-0.10352 0.65239,0.57272 1.07752,1.50274 0.42513,0.93003 0.85164,1.84972 0.94781,2.04374 0.0962,0.19403 -0.24765,-0.0321 -0.76398,-0.50246 -0.51636,-0.47039 -0.93884,-1.04109 -0.93884,-1.26824 0,-0.22715 -0.3175,-0.70033 -0.70556,-1.05152 -1.05033,-0.95053 -0.93521,0.0923 0.19382,1.75602 1.23264,1.8164 0.94805,1.82471 -0.5466,0.016 z m -15.60188,-5.06856 c -0.72235,-0.51521 -1.31745,-1.11798 -1.32242,-1.33948 -0.005,-0.2215 -0.39225,-0.49891 -0.86064,-0.61647 -0.77293,-0.19399 -3.42854,-3.03775 -2.83675,-3.03775 0.13828,0 0.90568,0.56692 1.70532,1.25983 1.67873,1.45468 3.20859,2.70996 4.42154,3.62806 1.36956,1.03661 0.33648,1.13535 -1.10705,0.10581 z M 58.694977,129.68462 c 0.23931,-0.2411 0.52396,-0.34949 0.63258,-0.24087 0.10862,0.10862 -0.0872,0.30588 -0.43509,0.43835 -0.50278,0.19145 -0.5433,0.15093 -0.19749,-0.19748 z m 92.124073,-3.04303 c -0.43879,-0.55953 -0.42633,-0.572 0.13321,-0.1332 0.33955,0.2663 0.61736,0.54411 0.61736,0.61737 0,0.29035 -0.2897,0.10347 -0.75057,-0.48417 z m 8.51168,-0.0882 c -0.31796,-0.20548 -0.36145,-0.34414 -0.10901,-0.34738 0.23107,-0.003 0.51827,0.15335 0.63818,0.34738 0.27068,0.43798 0.14855,0.43798 -0.52917,0 z m -6.52639,-0.70556 c -0.11991,-0.19403 -0.0593,-0.35278 0.13476,-0.35278 0.19403,0 0.45089,0.15875 0.5708,0.35278 0.11991,0.19403 0.0593,0.35278 -0.13476,0.35278 -0.19403,0 -0.45089,-0.15875 -0.5708,-0.35278 z m 8.18148,-6.26181 c -0.70439,-0.53357 -1.36458,-1.21299 -1.46702,-1.50982 -0.10248,-0.29683 -0.66294,-0.7196 -1.24552,-0.9395 -0.58258,-0.21989 -1.04669,-0.61203 -1.03138,-0.87142 0.0194,-0.32955 0.0795,-0.34476 0.19918,-0.0505 0.0942,0.23163 0.70912,0.59863 1.36641,0.81555 0.6573,0.21693 1.28468,0.67669 1.39418,1.02169 0.1095,0.345 0.5849,0.83376 1.05646,1.08614 0.47156,0.25237 0.94023,0.67466 1.04144,0.93842 0.25216,0.65712 0.15205,0.61974 -1.31375,-0.49057 z m -16.11898,-2.55764 c -0.64488,-0.41674 -0.0879,-0.41674 0.88195,0 0.4652,0.19992 0.52532,0.3098 0.17638,0.32258 -0.29104,0.0107 -0.76729,-0.13449 -1.05833,-0.32258 z m 6.96736,-4.31312 c -0.33955,-0.34417 -0.53012,-0.62576 -0.42344,-0.62576 0.24286,0 2.27553,1.04349 2.27553,1.16818 0,0.36079 -1.3515,-0.035 -1.85209,-0.54242 z m -85.203273,-1.04445 c 0.17579,-0.52734 0.97757,-0.8177 0.97757,-0.35401 0,0.18944 -0.25139,0.4409 -0.55864,0.5588 -0.34358,0.13185 -0.50485,0.053 -0.41893,-0.20479 z m 82.822023,-0.28687 c -0.31796,-0.20548 -0.36145,-0.34413 -0.10901,-0.34738 0.23107,-0.003 0.51827,0.15335 0.63818,0.34738 0.27069,0.43798 0.14855,0.43798 -0.52917,0 z m -31.81184,-1.89732 c -1.1012,-0.21765 -2.11984,-0.5148 -2.26367,-0.66032 -0.32554,-0.32936 -0.49474,-0.34362 2.78885,0.23511 1.51603,0.2672 2.85217,0.58157 2.96922,0.69862 0.30233,0.30233 -1.16078,0.18786 -3.4944,-0.27341 z m -5.93538,-1.04065 c -1.31142,-0.26001 -1.65442,-0.42093 -1.05834,-0.49649 0.48507,-0.0615 1.59632,0.11479 2.46945,0.39173 1.87988,0.59627 1.28905,0.64013 -1.41111,0.10476 z m -8.60672,-0.88379 c -0.0999,-0.16169 0.28059,-0.29398 0.84561,-0.29398 0.56501,0 0.94553,0.13229 0.8456,0.29398 -0.0999,0.16169 -0.48045,0.29398 -0.8456,0.29398 -0.36516,0 -0.74568,-0.13229 -0.84561,-0.29398 z m 3.66783,-0.0588 c 0.29104,-0.18808 0.76729,-0.33324 1.05833,-0.32258 0.34893,0.0128 0.28882,0.12267 -0.17639,0.32258 -0.96982,0.41675 -1.52682,0.41675 -0.88194,0 z m 13.58194,-7.40833 c -0.1199,-0.194026 -0.0593,-0.352776 0.13477,-0.352776 0.19402,0 0.45088,0.15875 0.57079,0.352776 0.11991,0.19403 0.0593,0.35278 -0.13476,0.35278 -0.19403,0 -0.45089,-0.15875 -0.5708,-0.35278 z m -5.02708,-0.774366 c -1.01865,-0.18578 -1.85208,-0.47992 -1.85208,-0.65364 0,-0.41998 3.65276,-0.0323 5.25582,0.5578 l 1.27057,0.46772 -1.41111,-0.017 c -0.77612,-0.009 -2.24455,-0.16905 -3.2632,-0.35483 z m -3.61597,-0.70688 c -0.48507,-0.18704 -1.39788,-0.34302 -2.02847,-0.34663 -0.63059,-0.004 -1.14653,-0.16434 -1.14653,-0.35717 0,-0.37923 3.33985,-0.0511 4.19043,0.41172 0.78201,0.42548 -0.0493,0.6646 -1.01543,0.29208 z"
       style="fill:#ed87eb;stroke-width:0.35277781" />
  </g>
</svg>
